<svg viewBox="0 0 6637.44 2330.16" xmlns="http://www.w3.org/2000/svg"><path d="m2137.44 119.24h1000v1000h-1000z" fill="#333130"/><path d="m1.14 116.66h1000v1000h-1000z" fill="#333130"/><path d="m2777.57 274.39c-25.89-6.69-50.64-17.36-73.09-31.89-27.45-17.76-72.4-37.29-127.34-25.77-92.54 19.4-141.79 158.21-194.03 222.39s-162.69 141.79-44.78 150.75 182.09-88.06 334.33-80.6 225.37 65.67 274.63 38.81c46.06-25.13 28.16-222.58-169.71-273.69z" fill="none" stroke="#afa7a0" stroke-miterlimit="10" stroke-width="20"/><path d="m2571.64 601.95c-1.13-12.55 30.51 127.27-3.46 235.67-31.34 100-88.06 168.66 32.84 179.1 120.9 10.45 147.76 4.48 170.15-23.88s-5.97-29.85-13.43-135.82c-12.84-182.38-34.26-172.1-16.45-262.96 3.11-15.84-174.93-50.93-169.64 7.88z" fill="none" stroke="#afa7a0" stroke-miterlimit="10" stroke-width="20"/><path d="m2399.71 589.4s193.72-53.12 177.05 68.74" fill="none" stroke="#afa7a0" stroke-miterlimit="10" stroke-width="10"/><path d="m2852.64 544.59s-91.17-14.16-107.36 54.48" fill="none" stroke="#afa7a0" stroke-miterlimit="10" stroke-width="10"/><path d="m2494.48 555.03s60.41-3.12 81.96 39.98" fill="none" stroke="#afa7a0" stroke-miterlimit="10" stroke-width="10"/><path d="m2550.72 530.04s33.85 24.57 33.85 47.37" fill="none" stroke="#afa7a0" stroke-miterlimit="10" stroke-width="10"/><path d="m2592.35 514.78 10.58 58.41" fill="none" stroke="#afa7a0" stroke-miterlimit="10" stroke-width="10"/><path d="m2619.38 510.56-1.62 63.56" fill="none" stroke="#afa7a0" stroke-miterlimit="10" stroke-width="10"/><path d="m2643.81 508.02-5 63.26" fill="none" stroke="#afa7a0" stroke-miterlimit="10" stroke-width="10"/><path d="m2666.68 508.02-10.98 65.88" fill="none" stroke="#afa7a0" stroke-miterlimit="10" stroke-width="10"/><path d="m2675.97 573.05 19.43-63.34" fill="none" stroke="#afa7a0" stroke-miterlimit="10" stroke-width="10"/><path d="m2700.47 585.05s14.36-70.27 38.01-69.43" fill="none" stroke="#afa7a0" stroke-miterlimit="10" stroke-width="10"/><path d="m2724.97 590.12s9.29-71.12 67.57-63.51" fill="none" stroke="#afa7a0" stroke-miterlimit="10" stroke-width="10"/><path d="m4572.44 120.24h1000v1000h-1000z" fill="#333130"/><path d="m5212.57 275.39c-25.89-6.69-50.64-17.36-73.09-31.89-27.45-17.76-72.4-37.29-127.34-25.77-92.54 19.4-141.79 158.21-194.03 222.39s-162.69 141.79-44.78 150.75 182.09-88.06 334.33-80.6 225.37 65.67 274.63 38.81c46.06-25.13 28.16-222.58-169.71-273.69z" fill="none" stroke="#afa7a0" stroke-miterlimit="10" stroke-width="20"/><path d="m5006.64 602.95c-1.13-12.55 30.51 127.27-3.46 235.67-31.34 100-88.06 168.66 32.84 179.1 120.9 10.45 147.76 4.48 170.15-23.88s-5.97-29.85-13.43-135.82c-12.84-182.38-34.26-172.1-16.45-262.96 3.11-15.84-174.93-50.93-169.64 7.88z" fill="none" stroke="#afa7a0" stroke-miterlimit="10" stroke-width="20"/><path d="m4834.71 590.4s193.72-53.12 177.05 68.74" fill="none" stroke="#afa7a0" stroke-miterlimit="10" stroke-width="10"/><path d="m5287.64 545.59s-91.17-14.16-107.36 54.48" fill="none" stroke="#afa7a0" stroke-miterlimit="10" stroke-width="10"/><path d="m4929.48 556.03s60.41-3.12 81.96 39.98" fill="none" stroke="#afa7a0" stroke-miterlimit="10" stroke-width="10"/><path d="m4985.72 531.04s33.85 24.57 33.85 47.37" fill="none" stroke="#afa7a0" stroke-miterlimit="10" stroke-width="10"/><path d="m5027.35 515.78 10.58 58.41" fill="none" stroke="#afa7a0" stroke-miterlimit="10" stroke-width="10"/><path d="m5054.38 511.56-1.62 63.56" fill="none" stroke="#afa7a0" stroke-miterlimit="10" stroke-width="10"/><path d="m5078.81 509.02-5 63.26" fill="none" stroke="#afa7a0" stroke-miterlimit="10" stroke-width="10"/><path d="m5101.68 509.02-10.98 65.88" fill="none" stroke="#afa7a0" stroke-miterlimit="10" stroke-width="10"/><path d="m5110.97 574.05 19.43-63.34" fill="none" stroke="#afa7a0" stroke-miterlimit="10" stroke-width="10"/><path d="m5135.47 586.05s14.36-70.27 38.01-69.43" fill="none" stroke="#afa7a0" stroke-miterlimit="10" stroke-width="10"/><path d="m5159.97 591.12s9.29-71.12 67.57-63.51" fill="none" stroke="#afa7a0" stroke-miterlimit="10" stroke-width="10"/><path d="m5637.44 120.24h1000v1000h-1000z" fill="#333130"/><path d="m6277.57 275.39c-25.89-6.69-50.64-17.36-73.09-31.89-27.45-17.76-72.4-37.29-127.34-25.77-92.54 19.4-141.79 158.21-194.03 222.39s-162.69 141.79-44.78 150.75 182.09-88.06 334.33-80.6 225.37 65.67 274.63 38.81c46.06-25.13 28.16-222.58-169.71-273.69z" fill="none" stroke="#afa7a0" stroke-miterlimit="10" stroke-width="20"/><path d="m6071.64 602.95c-1.13-12.55 30.51 127.27-3.46 235.67-31.34 100-88.06 168.66 32.84 179.1 120.9 10.45 147.76 4.48 170.15-23.88s-5.97-29.85-13.43-135.82c-12.84-182.38-34.26-172.1-16.45-262.96 3.11-15.84-174.93-50.93-169.64 7.88z" fill="none" stroke="#afa7a0" stroke-miterlimit="10" stroke-width="20"/><path d="m5899.71 590.4s193.72-53.12 177.05 68.74" fill="none" stroke="#afa7a0" stroke-miterlimit="10" stroke-width="10"/><path d="m6352.64 545.59s-91.17-14.16-107.36 54.48" fill="none" stroke="#afa7a0" stroke-miterlimit="10" stroke-width="10"/><path d="m5994.48 556.03s60.41-3.12 81.96 39.98" fill="none" stroke="#afa7a0" stroke-miterlimit="10" stroke-width="10"/><path d="m6050.72 531.04s33.85 24.57 33.85 47.37" fill="none" stroke="#afa7a0" stroke-miterlimit="10" stroke-width="10"/><path d="m6092.35 515.78 10.58 58.41s56.69 19.5 56.69 102.97-6.77 282.02 36.1 232.38c42.87-49.63 78.96 40.61 78.96 40.61" fill="none" stroke="#afa7a0" stroke-miterlimit="10" stroke-width="10"/><path d="m6119.38 511.56-1.62 63.56" fill="none" stroke="#afa7a0" stroke-miterlimit="10" stroke-width="10"/><path d="m6143.81 509.02-5 63.26" fill="none" stroke="#afa7a0" stroke-miterlimit="10" stroke-width="10"/><path d="m6166.68 509.02-10.98 65.88" fill="none" stroke="#afa7a0" stroke-miterlimit="10" stroke-width="10"/><path d="m6175.97 574.05 19.43-63.34" fill="none" stroke="#afa7a0" stroke-miterlimit="10" stroke-width="10"/><path d="m6200.47 586.05s14.36-70.27 38.01-69.43" fill="none" stroke="#afa7a0" stroke-miterlimit="10" stroke-width="10"/><path d="m6224.97 591.12s9.29-71.12 67.57-63.51" fill="none" stroke="#afa7a0" stroke-miterlimit="10" stroke-width="10"/><path d="m4572.44 1190.24h1000v1000h-1000z" fill="#333130"/><path d="m5212.57 1345.39c-25.89-6.69-50.64-17.36-73.09-31.89-27.45-17.76-72.4-37.29-127.34-25.77-92.54 19.4-141.79 158.21-194.03 222.39s-162.69 141.79-44.78 150.75 182.09-88.06 334.33-80.6 225.37 65.67 274.63 38.81c46.06-25.13 28.16-222.58-169.71-273.69z" fill="none" stroke="#afa7a0" stroke-miterlimit="10" stroke-width="20"/><path d="m5006.64 1672.95c-1.13-12.55 30.51 127.27-3.46 235.67-31.34 100-88.06 168.66 32.84 179.1 120.9 10.45 147.76 4.48 170.15-23.88s-5.97-29.85-13.43-135.82c-12.84-182.38-34.26-172.1-16.45-262.96 3.11-15.84-174.93-50.93-169.64 7.88z" fill="none" stroke="#afa7a0" stroke-miterlimit="10" stroke-width="20"/><path d="m4834.71 1660.4s193.72-53.12 177.05 68.74" fill="none" stroke="#afa7a0" stroke-miterlimit="10" stroke-width="10"/><path d="m5287.64 1615.59s-91.17-14.16-107.36 54.48" fill="none" stroke="#afa7a0" stroke-miterlimit="10" stroke-width="10"/><path d="m5011.44 1666.01c-21.55-43.11-81.96-39.98-81.96-39.98" fill="none" stroke="#afa7a0" stroke-miterlimit="10" stroke-width="10"/><path d="m4985.72 1601.04s33.85 24.57 33.85 47.37" fill="none" stroke="#afa7a0" stroke-miterlimit="10" stroke-width="10"/><path d="m5027.35 1585.78 10.58 58.41" fill="none" stroke="#afa7a0" stroke-miterlimit="10" stroke-width="10"/><path d="m5054.38 1581.56-1.62 63.56" fill="none" stroke="#afa7a0" stroke-miterlimit="10" stroke-width="10"/><path d="m5078.81 1579.02-5 63.26" fill="none" stroke="#afa7a0" stroke-miterlimit="10" stroke-width="10"/><path d="m5101.68 1579.02-10.98 65.88" fill="none" stroke="#afa7a0" stroke-miterlimit="10" stroke-width="10"/><path d="m5110.97 1644.05 19.43-63.34" fill="none" stroke="#afa7a0" stroke-miterlimit="10" stroke-width="10"/><path d="m5135.47 1656.05s14.36-70.27 38.01-69.43" fill="none" stroke="#afa7a0" stroke-miterlimit="10" stroke-width="10"/><path d="m5159.97 1661.12s9.29-71.12 67.57-63.51" fill="none" stroke="#afa7a0" stroke-miterlimit="10" stroke-width="10"/><path d="m5636.44 1190.24h1000v1000h-1000z" fill="#333130"/><path d="m6276.57 1345.39c-25.89-6.69-50.64-17.36-73.09-31.89-27.45-17.76-72.4-37.29-127.34-25.77-92.54 19.4-141.79 158.21-194.03 222.39s-162.69 141.79-44.78 150.75 182.09-88.06 334.33-80.6 225.37 65.67 274.63 38.81c46.06-25.13 28.16-222.58-169.71-273.69z" fill="none" stroke="#afa7a0" stroke-miterlimit="10" stroke-width="20"/><path d="m6070.64 1672.95c-1.13-12.55 30.51 127.27-3.46 235.67-31.34 100-88.06 168.66 32.84 179.1 120.9 10.45 147.76 4.48 170.15-23.88s-5.97-29.85-13.43-135.82c-12.84-182.38-34.26-172.1-16.45-262.96 3.11-15.84-174.93-50.93-169.64 7.88z" fill="none" stroke="#afa7a0" stroke-miterlimit="10" stroke-width="20"/><path d="m5898.71 1660.4s193.72-53.12 177.05 68.74" fill="none" stroke="#afa7a0" stroke-miterlimit="10" stroke-width="10"/><path d="m6351.64 1615.59s-91.17-14.16-107.36 54.48" fill="none" stroke="#afa7a0" stroke-miterlimit="10" stroke-width="10"/><path d="m5993.48 1626.03s60.41-3.12 81.96 39.98" fill="none" stroke="#afa7a0" stroke-miterlimit="10" stroke-width="10"/><path d="m6049.72 1601.04s33.85 24.57 33.85 47.37" fill="none" stroke="#afa7a0" stroke-miterlimit="10" stroke-width="10"/><path d="m6091.35 1585.78 10.58 58.41" fill="none" stroke="#afa7a0" stroke-miterlimit="10" stroke-width="10"/><path d="m6118.38 1581.56-1.62 63.56" fill="none" stroke="#afa7a0" stroke-miterlimit="10" stroke-width="10"/><path d="m6142.81 1579.02-5 63.26" fill="none" stroke="#afa7a0" stroke-miterlimit="10" stroke-width="10"/><path d="m6165.68 1579.02-10.98 65.88" fill="none" stroke="#afa7a0" stroke-miterlimit="10" stroke-width="10"/><path d="m6174.97 1644.05 19.43-63.34" fill="none" stroke="#afa7a0" stroke-miterlimit="10" stroke-width="10"/><path d="m6199.47 1656.05s14.36-70.27 38.01-69.43" fill="none" stroke="#afa7a0" stroke-miterlimit="10" stroke-width="10"/><path d="m6223.97 1661.12s9.29-71.12 67.57-63.51" fill="none" stroke="#afa7a0" stroke-miterlimit="10" stroke-width="10"/><path d="m3.44 1189.24h1000v1000h-1000z" fill="#333130"/><path d="m380.77 1380.04c-1.92-21.28 51.74 215.82-5.87 399.63-53.15 169.57-149.32 285.99 55.68 303.71 205.01 17.72 250.56 7.59 288.53-40.49 37.96-48.09-10.12-50.62-22.78-230.31-21.78-309.27-58.09-291.84-27.89-445.9 5.27-26.86-296.64-86.36-287.67 13.36z" fill="none" stroke="#afa7a0" stroke-miterlimit="10" stroke-width="20"/><path d="m3206.44 120.24h1000v1000h-1000z" fill="#333130"/><path d="m3940.03 548.62c31.94 8.19 56.09 11.44 76.25.45 46.06-25.13 28.16-222.58-169.71-273.69-25.89-6.69-50.64-17.36-73.09-31.89-27.45-17.76-72.4-37.29-127.34-25.77-92.54 19.4-141.79 158.21-194.03 222.39s-162.69 141.79-44.78 150.75c32.55 2.47 61.01-3.13 88.35-12.38 0 0 134.75-36.52 144.96 24.47 0 0 30.51 127.27-3.46 235.67-31.34 100-88.06 168.66 32.84 179.1 120.9 10.45 147.76 4.48 170.15-23.88s-5.97-29.85-13.43-135.82c-12.84-182.38-32.26-169.6-14.45-260.46 16.19-68.65 127.75-48.95 127.75-48.95" fill="none" stroke="#afa7a0" stroke-miterlimit="10" stroke-width="20"/><path d="m3477.33 577.02s57.89-49.93 99.85-45.59c41.97 4.34 51.67 15.7 63.46 71.52 11.79 55.83 6 12.41 4.56-65.73-1.45-78.15-92.62-33.28-205.5 49.2" fill="none" stroke="#afa7a0" stroke-miterlimit="10" stroke-width="10"/><path d="m3966.47 550.24c-95.51-20.26-172.21-91.17-173.66-43.41s7.24 147.61 7.24 147.61-5.79-117.22 17.37-124.46 40.52 7.24 86.83 14.47" fill="none" stroke="#afa7a0" stroke-miterlimit="10" stroke-width="10"/><path d="m3670.37 535.38c.22-29.38 23.47-53.86 52.85-54.49 12.24-.27 23.2 3.78 28.18 16.71 14.47 37.63 36.18 416.78 50.65 441.38s15.92 40.52-24.6 49.2-130.24 8.68-140.37-18.81 40.52-99.85 50.65-151.95-17.37-254.7-17.37-277.86c0-1.41 0-2.81.02-4.18z" fill="none" stroke="#afa7a0" stroke-miterlimit="10" stroke-width="10"/><path d="m440.63 1447.16s4.63 90.26 43.97 4.63" fill="none" stroke="#afa7a0" stroke-miterlimit="10" stroke-width="10"/><path d="m614.22 1780.44s23.14 113.41 34.72 2.31" fill="none" stroke="#afa7a0" stroke-miterlimit="10" stroke-width="10"/><path d="m399.41 1902.04s-11.89 115.13 32.43 12.61" fill="none" stroke="#afa7a0" stroke-miterlimit="10" stroke-width="10"/><path d="m493.87 1525.85s23.14 113.41 34.72 2.31" fill="none" stroke="#afa7a0" stroke-miterlimit="10" stroke-width="10"/><path d="m449.89 1606.86s18.52 113.41 32.4 4.63" fill="none" stroke="#afa7a0" stroke-miterlimit="10" stroke-width="10"/><path d="m607.28 1859.13s34.72 150.44 50.92-2.31" fill="none" stroke="#afa7a0" stroke-miterlimit="10" stroke-width="10"/><path d="m616.53 1403.19s16.2 106.47 43.97-2.31" fill="none" stroke="#afa7a0" stroke-miterlimit="10" stroke-width="10"/><path d="m3206.44 1190.24h1000v1000h-1000z" fill="#333130"/><path d="m605.42 923.96-156.94 25.5c-191.49 0-294.07-162.32-294.07-353.81 0-104.77 114.62-199.81 218.45-264.41 205.07-127.6 471.97 17.17 474.97 258.68.02 1.91.04 3.82.04 5.73 0 186-28.44 317.22-205.55 324.6-12.36.51-24.69 1.72-36.9 3.71z" fill="none" stroke="#afa7a0" stroke-miterlimit="10" stroke-width="20"/><path d="m1073.44 116.66h1000v1000h-1000z" fill="#333130"/><path d="m1469.16 923.96 156.94 25.5c191.49 0 294.07-162.32 294.07-353.81 0-104.77-114.62-199.81-218.45-264.41-205.07-127.6-471.97 17.17-474.97 258.68-.02 1.91-.04 3.82-.04 5.73 0 186 28.44 317.22 205.55 324.6 12.36.51 24.69 1.72 36.9 3.71z" fill="none" stroke="#afa7a0" stroke-miterlimit="10" stroke-width="20"/><path d="m1488.75 872.28 128.81 20.93c157.17 0 241.36-133.22 241.36-290.39 0-85.99-94.08-164-179.29-217.02-168.31-104.73-387.37 14.09-389.84 212.31-.02 1.57-.03 3.14-.03 4.71 0 152.66 23.34 260.36 168.71 266.42 10.14.42 20.26 1.42 30.28 3.04z" fill="none" stroke="#afa7a0" stroke-miterlimit="10" stroke-width="20"/><path d="m1636.02 578.44-29.42-28.63c-40.51-28.36-86.25-9.21-114.6 31.3-15.51 22.16-5.34 59.24 7.06 88.28 24.49 57.36 102.39 66.25 138.78 15.61.29-.4.57-.8.86-1.21 27.54-39.35 40.96-71.32 4.58-99.1-2.54-1.94-4.97-4.02-7.26-6.25z" fill="none" stroke="#afa7a0" stroke-miterlimit="10" stroke-width="20"/><path d="m223.62 567.44s-15.5 66.44 24.36 28.79-17.72-70.87-24.36-28.79z" fill="none" stroke="#afa7a0" stroke-miterlimit="10" stroke-width="10"/><path d="m281.2 669.32s-26.58 86.37 31.01 68.65c57.58-17.72 46.51 37.65 66.44 24.36s-64.23-135.09-97.45-93.02z" fill="none" stroke="#afa7a0" stroke-miterlimit="10" stroke-width="10"/><path d="m682.06 485.5c1.35 37.69-17.72 59.8 24.36 48.72 42.08-11.07-28.79-172.74-24.36-48.72z" fill="none" stroke="#afa7a0" stroke-miterlimit="10" stroke-width="10"/><path d="m775.07 565.23s-19.93 37.65 8.86 35.43 22.15-55.37-8.86-35.43z" fill="none" stroke="#afa7a0" stroke-miterlimit="10" stroke-width="10"/><path d="m668.77 784.48c-17.26 18.17-66.44 33.22-42.08 44.29s84.16-88.59 42.08-44.29z" fill="none" stroke="#afa7a0" stroke-miterlimit="10" stroke-width="10"/><path d="m2137.44 1190.24h1000v1000h-1000z" fill="#333130"/><path d="m1492.94 355.75 57.05 180.16" fill="none" stroke="#afa7a0" stroke-miterlimit="10" stroke-width="10"/><path d="m1540.98 346.75 33.03 189.16" fill="none" stroke="#afa7a0" stroke-miterlimit="10" stroke-width="10"/><path d="m1793.1 469.85-149.82 114.84" fill="none" stroke="#afa7a0" stroke-miterlimit="10" stroke-width="10"/><path d="m1606.95 707.05 90.07 171.15" fill="none" stroke="#afa7a0" stroke-miterlimit="10" stroke-width="10"/><path d="m1538.97 703.04-71.4 166.19" fill="none" stroke="#afa7a0" stroke-miterlimit="10" stroke-width="10"/><path d="m1489.94 607.97-189.16-54.05" fill="none" stroke="#afa7a0" stroke-miterlimit="10" stroke-width="10"/><path d="m1625.05 358.76-30.02 174.14" fill="none" stroke="#afa7a0" stroke-miterlimit="10" stroke-width="10"/><path d="m1679.63 385.8-73.03 164" fill="none" stroke="#afa7a0" stroke-miterlimit="10" stroke-width="10"/><path d="m1727.05 424.81-104.09 143.84" fill="none" stroke="#afa7a0" stroke-miterlimit="10" stroke-width="10"/><path d="m1369.05 424.28 142.94 142.94" fill="none" stroke="#afa7a0" stroke-miterlimit="10" stroke-width="10"/><path d="m1427.65 377.11 101.49 172.95" fill="none" stroke="#afa7a0" stroke-miterlimit="10" stroke-width="10"/><path d="m1321.88 482.88 179.21 98.23" fill="none" stroke="#afa7a0" stroke-miterlimit="10" stroke-width="10"/><path d="m1654.4 648.69 190.11 44.31" fill="none" stroke="#afa7a0" stroke-miterlimit="10" stroke-width="10"/><path d="m1835.93 527.19-177.24 75.76" fill="none" stroke="#afa7a0" stroke-miterlimit="10" stroke-width="10"/><path d="m1855.94 575.79-191.53 38.6" fill="none" stroke="#afa7a0" stroke-miterlimit="10" stroke-width="10"/><path d="m1854.51 632.97-188.67 1.43" fill="none" stroke="#afa7a0" stroke-miterlimit="10" stroke-width="10"/><path d="m1300.44 624.54 197.25 7.15" fill="none" stroke="#afa7a0" stroke-miterlimit="10" stroke-width="10"/><path d="m1387.63 851.66 136.64-157.95" fill="none" stroke="#afa7a0" stroke-miterlimit="10" stroke-width="10"/><path d="m1313.3 751.61 191.85-87.22" fill="none" stroke="#afa7a0" stroke-miterlimit="10" stroke-width="10"/><path d="m1301.87 683.28 198.68-34.01" fill="none" stroke="#afa7a0" stroke-miterlimit="10" stroke-width="10"/><path d="m1339.03 808.78 171.53-128.16" fill="none" stroke="#afa7a0" stroke-miterlimit="10" stroke-width="10"/><path d="m1559.28 715.05-21.1 164.32" fill="none" stroke="#afa7a0" stroke-miterlimit="10" stroke-width="10"/><path d="m1587.03 717.27 39.63 175.94" fill="none" stroke="#afa7a0" stroke-miterlimit="10" stroke-width="10"/><path d="m1638.7 683.79 160.17 121.19" fill="none" stroke="#afa7a0" stroke-miterlimit="10" stroke-width="10"/><path d="m1827.74 751.69-177.64-84.38" fill="none" stroke="#afa7a0" stroke-miterlimit="10" stroke-width="10"/><path d="m1626.78 698.4 126.57 153.21" fill="none" stroke="#afa7a0" stroke-miterlimit="10" stroke-width="10"/><path d="m1072.44 1189.24h1000v1000h-1000z" fill="#333130"/><g stroke="#afa7a0" stroke-miterlimit="10"><path d="m1462.46 1367.55 1.51 4.77" fill="none" stroke-linecap="round" stroke-width="20"/><path d="m1472.66 1399.77 53.6 169.24" fill="none" stroke-dasharray="0 0 9.6 28.79" stroke-linecap="round" stroke-width="20"/><path d="m1530.6 1582.74 1.51 4.76" fill="none" stroke-linecap="round" stroke-width="20"/><path d="m1521.12 1356.56.86 4.92" fill="none" stroke-linecap="round" stroke-width="20"/><path d="m1527.01 1390.32 31.05 177.84" fill="none" stroke-dasharray="0 0 9.76 29.27" stroke-linecap="round" stroke-width="20"/><path d="m1560.58 1582.58.86 4.92" fill="none" stroke-linecap="round" stroke-width="20"/><path d="m1840.58 1506.85-3.97 3.05" fill="none" stroke-linecap="round" stroke-width="20"/><path d="m1813.79 1527.39-140.75 107.88" fill="none" stroke-dasharray="0 0 9.59 28.76" stroke-linecap="round" stroke-width="20"/><path d="m1661.63 1644.01-3.97 3.05" fill="none" stroke-linecap="round" stroke-width="20"/><path d="m1613.3 1796.45 2.33 4.43" fill="none" stroke-linecap="round" stroke-width="20"/><path d="m1629.37 1826.98 84.71 160.95" fill="none" stroke-dasharray="0 0 9.83 29.49" stroke-linecap="round" stroke-width="20"/><path d="m1720.95 2000.98 2.33 4.43" fill="none" stroke-linecap="round" stroke-width="20"/><path d="m1518.66 1791.56-1.97 4.59" fill="none" stroke-linecap="round" stroke-width="20"/><path d="m1505.83 1821.42-66.94 155.82" fill="none" stroke-dasharray="0 0 9.17 27.5" stroke-linecap="round" stroke-width="20"/><path d="m1433.46 1989.87-1.97 4.59" fill="none" stroke-linecap="round" stroke-width="20"/><path d="m1458.8 1675.48-4.81-1.37" fill="none" stroke-linecap="round" stroke-width="20"/><path d="m1425.12 1665.86-178.03-50.87" fill="none" stroke-dasharray="0 0 10.01 30.02" stroke-linecap="round" stroke-width="20"/><path d="m1232.66 1610.87-4.81-1.37" fill="none" stroke-linecap="round" stroke-width="20"/><path d="m1624.3 1371.22-.85 4.93" fill="none" stroke-linecap="round" stroke-width="20"/><path d="m1617.93 1408.16-26.68 154.74" fill="none" stroke-dasharray="0 0 10.83 32.49" stroke-linecap="round" stroke-width="20"/><path d="m1588.49 1578.91-.85 4.93" fill="none" stroke-linecap="round" stroke-width="20"/><path d="m1702.04 1404.24-2.03 4.56" fill="none" stroke-linecap="round" stroke-width="20"/><path d="m1688.91 1433.73-68.45 153.71" fill="none" stroke-dasharray="0 0 9.1 27.29" stroke-linecap="round" stroke-width="20"/><path d="m1614.91 1599.9-2.03 4.57" fill="none" stroke-linecap="round" stroke-width="20"/><path d="m1759.93 1451.87-2.93 4.05" fill="none" stroke-linecap="round" stroke-width="20"/><path d="m1737.86 1482.37-92.51 127.83" fill="none" stroke-dasharray="0 0 10.88 32.65" stroke-linecap="round" stroke-width="20"/><path d="m1635.78 1623.42-2.93 4.06" fill="none" stroke-linecap="round" stroke-width="20"/><path d="m1311.21 1451.22 3.53 3.53" fill="none" stroke-linecap="round" stroke-width="20"/><path d="m1336.58 1476.59 134.68 134.68" fill="none" stroke-dasharray="0 0 10.3 30.89" stroke-linecap="round" stroke-width="20"/><path d="m1482.18 1622.19 3.54 3.54" fill="none" stroke-linecap="round" stroke-width="20"/><path d="m1382.76 1393.63 2.53 4.31" fill="none" stroke-linecap="round" stroke-width="20"/><path d="m1400.79 1424.36 95.59 162.91" fill="none" stroke-dasharray="0 0 10.21 30.63" stroke-linecap="round" stroke-width="20"/><path d="m1504.13 1600.48 2.53 4.31" fill="none" stroke-linecap="round" stroke-width="20"/><path d="m1253.62 1522.77 4.38 2.4" fill="none" stroke-linecap="round" stroke-width="20"/><path d="m1285.4 1540.19 168.94 92.59" fill="none" stroke-dasharray="0 0 10.41 31.24" stroke-linecap="round" stroke-width="20"/><path d="m1468.04 1640.28 4.38 2.41" fill="none" stroke-linecap="round" stroke-width="20"/><path d="m1671.24 1725.2 4.87 1.14" fill="none" stroke-linecap="round" stroke-width="20"/><path d="m1705.12 1733.1 178.85 41.69" fill="none" stroke-dasharray="0 0 9.93 29.78" stroke-linecap="round" stroke-width="20"/><path d="m1898.47 1778.17 4.87 1.13" fill="none" stroke-linecap="round" stroke-width="20"/><path d="m1892.87 1576.87-4.59 1.96" fill="none" stroke-linecap="round" stroke-width="20"/><path d="m1861.25 1590.38-166.66 71.24" fill="none" stroke-dasharray="0 0 9.8 29.39" stroke-linecap="round" stroke-width="20"/><path d="m1681.08 1667.39-4.6 1.97" fill="none" stroke-linecap="round" stroke-width="20"/><path d="m1917.3 1636.2-4.9.99" fill="none" stroke-linecap="round" stroke-width="20"/><path d="m1883.18 1643.08-180.21 36.31" fill="none" stroke-dasharray="0 0 9.94 29.81" stroke-linecap="round" stroke-width="20"/><path d="m1688.36 1682.33-4.9.99" fill="none" stroke-linecap="round" stroke-width="20"/><path d="m1915.56 1706.01-5 .03" fill="none" stroke-linecap="round" stroke-width="20"/><path d="m1881.82 1706.26-177.25 1.34" fill="none" stroke-dasharray="0 0 9.58 28.74" stroke-linecap="round" stroke-width="20"/><path d="m1690.2 1707.71-5 .04" fill="none" stroke-linecap="round" stroke-width="20"/><path d="m1227.44 1695.72 5 .18" fill="none" stroke-linecap="round" stroke-width="20"/><path d="m1262.55 1696.99 185.67 6.72" fill="none" stroke-dasharray="0 0 10.04 30.13" stroke-linecap="round" stroke-width="20"/><path d="m1463.27 1704.26 5 .18" fill="none" stroke-linecap="round" stroke-width="20"/><path d="m1333.89 1973.01 3.27-3.78" fill="none" stroke-linecap="round" stroke-width="20"/><path d="m1358.07 1945.06 128.93-149.03" fill="none" stroke-dasharray="0 0 10.65 31.95" stroke-linecap="round" stroke-width="20"/><path d="m1497.45 1783.95 3.27-3.78" fill="none" stroke-linecap="round" stroke-width="20"/><path d="m1243.15 1850.85 4.55-2.07" fill="none" stroke-linecap="round" stroke-width="20"/><path d="m1277.06 1835.43 181.08-82.32" fill="none" stroke-dasharray="0 0 10.75 32.26" stroke-linecap="round" stroke-width="20"/><path d="m1472.82 1746.44 4.56-2.07" fill="none" stroke-linecap="round" stroke-width="20"/><path d="m1229.19 1767.44 4.92-.85" fill="none" stroke-linecap="round" stroke-width="20"/><path d="m1264.47 1761.4 187.18-32.05" fill="none" stroke-dasharray="0 0 10.27 30.8" stroke-linecap="round" stroke-width="20"/><path d="m1466.83 1726.75 4.93-.84" fill="none" stroke-linecap="round" stroke-width="20"/><path d="m1274.56 1920.66 4-3" fill="none" stroke-linecap="round" stroke-width="20"/><path d="m1300.94 1900.94 167.84-125.4" fill="none" stroke-dasharray="0 0 9.31 27.93" stroke-linecap="round" stroke-width="20"/><path d="m1479.97 1767.18 4-2.99" fill="none" stroke-linecap="round" stroke-width="20"/><path d="m1543.45 1806.22-.63 4.96" fill="none" stroke-linecap="round" stroke-width="20"/><path d="m1538.95 1841.29-18.68 145.53" fill="none" stroke-dasharray="0 0 10.12 30.36" stroke-linecap="round" stroke-width="20"/><path d="m1518.34 2001.87-.64 4.96" fill="none" stroke-linecap="round" stroke-width="20"/><path d="m1577.88 1808.93 1.1 4.88" fill="none" stroke-linecap="round" stroke-width="20"/><path d="m1585.01 1840.55 37.14 164.93" fill="none" stroke-dasharray="0 0 9.14 27.42" stroke-linecap="round" stroke-width="20"/><path d="m1625.16 2018.86 1.1 4.87" fill="none" stroke-linecap="round" stroke-width="20"/><path d="m1652.07 1768.05 3.98 3.02" fill="none" stroke-linecap="round" stroke-width="20"/><path d="m1680.52 1789.58 150.88 114.16" fill="none" stroke-dasharray="0 0 10.23 30.68" stroke-linecap="round" stroke-width="20"/><path d="m1843.64 1913 3.98 3.01" fill="none" stroke-linecap="round" stroke-width="20"/><path d="m1882.87 1850.95-4.52-2.14" fill="none" stroke-linecap="round" stroke-width="20"/><path d="m1851.24 1835.93-167.18-79.41" fill="none" stroke-dasharray="0 0 10 30.01" stroke-linecap="round" stroke-width="20"/><path d="m1670.51 1750.08-4.52-2.15" fill="none" stroke-linecap="round" stroke-width="20"/><path d="m1637.52 1785.89 3.19 3.85" fill="none" stroke-linecap="round" stroke-width="20"/><path d="m1660.03 1813.14 119.17 144.25" fill="none" stroke-dasharray="0 0 10.11 30.34" stroke-linecap="round" stroke-width="20"/><path d="m1788.86 1969.09 3.19 3.85" fill="none" stroke-linecap="round" stroke-width="20"/><rect fill="none" height="691.93" rx="345.96" stroke-width="20" width="691.93" x="2293.47" y="1345.54"/><rect fill="none" height="594.65" rx="297.33" stroke-width="20" width="594.65" x="2342.1" y="1394.17"/><path d="m3467.79 1393.08s-71.41 4.87-105.49 173.65 16.23 256.42 154.17 225.58c137.95-30.83 108.73-108.73 94.13-245.06-14.61-136.32-103.86-202.86-142.81-154.17z" fill="none" stroke-width="20"/><path d="m3865.4 1347.64s-64.92 212.6-61.67 332.69 115.23 292.12 183.39 228.83 50.31-172.03 43.82-246.68-82.77-465.77-165.53-314.84z" fill="none" stroke-width="20"/><path d="m3746.93 1511.56s-87.64 108.73-69.78 249.92c17.85 141.19-34.08 170.4 103.86 162.29 137.95-8.11 35.7-503.1-34.08-412.21z" fill="#333130" stroke-width="20"/><path d="m3569.75 1607.96s-76.15-10.88-76.15 70.71 5.44 369.86 5.44 369.86" fill="none" stroke-width="20"/><path d="m3499.05 1488.3-5.44 190.37" fill="none" stroke-width="20"/><path d="m3402.44 1657.18s85.9-14.95 93.62 104.58" fill="none" stroke-width="20"/><path d="m3765.99 1702.86-5.44 348.11" fill="none" stroke-width="20"/><path d="m3916.32 1494.46 20 565.61" fill="none" stroke-width="20"/><path d="m3987.02 1715.69s-59.3-13.68-57.02 63.86" fill="none" stroke-width="20"/><path d="m3919.27 1655.34s10.9-59.3-50.85-57.02" fill="none" stroke-width="20"/><path d="m2445.33 1551.6s9.86 73.98 39.46 71.52c29.59-2.47 27.13 44.39 7.4 41.92" fill="none" stroke-width="20"/><path d="m2743.72 1637.91c-32.06 7.4-24.66-78.92-24.66-78.92" fill="none" stroke-width="20"/><path d="m2502.05 1630.52s91.25 27.13 103.58 73.98c12.33 46.86 29.59 49.32 29.59 49.32s7.4-101.11-14.8-115.91-2.47-118.37-2.47-118.37" fill="none" stroke-width="20"/><path d="m2827.57 1798.21s-32.06 91.25-73.98 24.66c0 0-49.32-241.68-118.37-69.05-60.01 150.03-167.7 66.59-167.7 66.59" fill="none" stroke-width="20"/><path d="m2719.06 1874.66s0-91.25-83.85-120.84" fill="none" stroke-width="20"/><path d="m2844.84 1736.56s-115.91-41.92-113.44 14.8" fill="none" stroke-width="20"/><path d="m2509.44 1783.41s46.86 19.73 51.79 46.86" fill="none" stroke-width="10"/><path d="m2625.35 1882.06-19.73-83.85s4.93 93.71-24.66 98.64" fill="none" stroke-width="10"/><path d="m2487.25 1526.94s78.92 41.92 69.05 120.84" fill="none" stroke-width="10"/><path d="m2492.18 1566.4 51.79 17.26s27.13-7.4 12.33-49.32" fill="none" stroke-width="10"/><path d="m2847.3 1672.44s-56.72 27.13-56.72 46.86" fill="none" stroke-width="10"/><path d="m2689.47 1684.77s49.32-19.73 96.18-103.58" fill="none" stroke-width="10"/><path d="m2830.04 1593.52s-19.73 34.53-69.05 27.13" fill="none" stroke-width="10"/><path d="m2659.88 1465.29s7.4 152.9-54.25 135.64" fill="none" stroke-width="10"/><path d="m2465.05 1702.03s113.44 39.46 113.44-29.59" fill="none" stroke-width="10"/><path d="m5164.62 638.81s-45.12-45.12-47.38 2.26 15.79 117.32 6.77 169.21 13.54 83.48 33.84 78.96 40.61 0 40.61 0" fill="none" stroke-width="10"/><path d="m5054.37 646.55s16.77 112.81 3.23 157.93 36.1 27.07 36.1-4.51-.98-241.41-39.33-153.42z" fill="none" stroke-width="10"/><path d="m5883.1 440.12s17.07-6.62 87.01-42.72 31.59 87.99 69.94 83.48 28.07-106.07 47.38-128.6c54.15-63.17 92.5-18.05 99.27 20.31s29.33 47.38 51.89 33.84 67.68-63.17 78.96 22.56 82.35-93.01 106.04 13.54-18.05 110.55-18.05 110.55" fill="none" stroke-width="10"/><path d="m4782.33 1666.67s7.32 20.44 44.13 12.71 75.55 7.73 73.61 37.55 52.3 26.51 48.43 4.42 27.12-87.26 69.74-35.34" fill="none" stroke-width="10"/><path d="m5195.95 1639.76s76.28-23.25 76.28 21.31-24.86 129.79 20.13 127.85-54.64-168.54 61.06-156.91" fill="none" stroke-width="10"/><circle cx="5272.57" cy="1853.62" fill="none" r="23.25" stroke-width="10"/><path d="m4923.33 274.44-7.85 102.09 62.57-61c4.06-3.96 10.71.2 8.91 5.59l-22.4 67.19 66.53-77.62c2.51-2.92 7.14.09 5.47 3.56-20.74 43.26-66.6 135.31-83.79 140.81-98.16 31.41-143.31 143.31-27.49-31.41 24.78-37.39-72.15 59.26-109.47 75.26-37.09 15.9 13.27 24.87 34.87-100.78" fill="none" stroke-width="10"/><path d="m5077.95 345.82s4.32 33.43-60.47 103.18 98.31-204.31 60.47-103.18z" fill="none" stroke-width="10"/><path d="m5765.54 1470.57 48.04 6.6" fill="none" stroke-linecap="round" stroke-width="20"/><path d="m5769.91 1392.62 57.64 31.86" fill="none" stroke-linecap="round" stroke-width="20"/><path d="m5810.09 1335.73 50.65 53.84" fill="none" stroke-linecap="round" stroke-width="20"/><path d="m5879.08 1306.41 15.72 36.25" fill="none" stroke-linecap="round" stroke-width="20"/><path d="m6352.91 1264.11-6.29 36.47" fill="none" stroke-linecap="round" stroke-width="20"/><path d="m6285.96 1253.04 1.14 29.86" fill="none" stroke-linecap="round" stroke-width="20"/><path d="m6427.91 1285.13-25.82 43.14" fill="none" stroke-linecap="round" stroke-width="20"/><path d="m6488.13 1337.39-42.39 37.23" fill="none" stroke-linecap="round" stroke-width="20"/><path d="m6515.41 1416.5-28.07 11.04" fill="none" stroke-linecap="round" stroke-width="20"/><path d="m6426.57 1702.14-31.37-19.63" fill="none" stroke-linecap="round" stroke-width="20"/><path d="m6381.67 1765.52-30.16-40.22" fill="none" stroke-linecap="round" stroke-width="20"/><path d="m6297.66 1780.83-2.6-30.05" fill="none" stroke-linecap="round" stroke-width="20"/><path d="m5998.35 1796.37 7.77-48.54" fill="none" stroke-linecap="round" stroke-width="20"/><path d="m5917.52 1775.86 20.08-35.35" fill="none" stroke-linecap="round" stroke-width="20"/><path d="m5845.89 1739.18 30.13-22.25" fill="none" stroke-linecap="round" stroke-width="20"/></g><path d="m55.08 12.48-1.92 8.76-1.08.24c-5.36-4.48-11.52-6.72-18.48-6.72-7.6 0-13.44 2.62-17.52 7.86s-6.12 12.9-6.12 22.98 2.04 17.92 6.12 23.28 9.84 8.04 17.28 8.04c3.52 0 7.02-.64 10.5-1.92s6.66-3.08 9.54-5.4l1.2.6-.84 9.12c-6.96 3.84-14.04 5.76-21.24 5.76-10.32 0-18.32-3.34-24-10.02-5.68-6.68-8.52-16.22-8.52-28.62s2.96-22.52 8.88-29.4 14.32-10.32 25.2-10.32c8.08 0 15.08 1.92 21 5.76z" fill="#afa7a0"/><path d="m97.86 32.16c3 2.56 4.5 6.08 4.5 10.56 0 1.36-.24 6.28-.72 14.76s-.72 13.44-.72 14.88c0 1.76.28 2.98.84 3.66s1.52 1.02 2.88 1.02c1.2 0 2.56-.24 4.08-.72l.96.84-.96 5.4c-2.32 1.36-4.6 2.16-6.84 2.4-2.48-.24-4.46-1.12-5.94-2.64s-2.26-3.6-2.34-6.24h-.84c-4.32 4.4-8.6 7.4-12.84 9-5.36 0-9.54-1.34-12.54-4.02s-4.5-6.34-4.5-10.98c0-3.52.94-6.32 2.82-8.4s4.66-3.56 8.34-4.44l19.44-4.56.12-7.8c0-3.12-.82-5.52-2.46-7.2s-3.98-2.52-7.02-2.52c-2.72 0-5.44.64-8.16 1.92s-5.64 3.28-8.76 6l-.96-.48-1.2-6.84c6.64-4.96 13.48-7.44 20.52-7.44 5.2 0 9.3 1.28 12.3 3.84zm-21.9 30.84c-1.6.48-2.76 1.14-3.48 1.98s-1.08 2.1-1.08 3.78c0 2.64.74 4.7 2.22 6.18s3.46 2.22 5.94 2.22c4.4 0 8.88-2.84 13.44-8.52l.36-9.84z" fill="#afa7a0"/><path d="m163.68 35.52c3.68 4.56 5.52 11.08 5.52 19.56 0 9.6-2.32 17.02-6.96 22.26s-11.24 7.86-19.8 7.86c-3.36 0-6.84-.36-10.44-1.08l.24 22.32h-9.36l.6-45.48-.6-31.08 9.12-.84-.12 7.8h.84c2.8-2.32 5.32-4.08 7.56-5.28s4.76-2.16 7.56-2.88c6.88 0 12.16 2.28 15.84 6.84zm-7.8 37.2c2.88-3.68 4.32-8.92 4.32-15.72s-1.14-11.72-3.42-15.24-5.54-5.28-9.78-5.28c-2.48 0-4.94.68-7.38 2.04s-5.02 3.48-7.74 6.36l-.12 15.24.12 15c3.92 2.08 7.84 3.12 11.76 3.12 5.28 0 9.36-1.84 12.24-5.52z" fill="#afa7a0"/><path d="m1132.56 46.44-.12 8.64c.16 9.44-2.32 16.8-7.44 22.08s-12.4 7.92-21.84 7.92-15.98-2.52-20.82-7.56-7.18-12.16-7.02-21.36l.12-10.44-.12-38.4h9.48l-.36 47.64c-.08 7.2 1.52 12.62 4.8 16.26s8.16 5.46 14.64 5.46 11.4-1.72 14.76-5.16 5-8.56 4.92-15.36l-.48-48.84h9.6z" fill="#afa7a0"/><path d="m1183.44 46.92c.08-3.28-.68-5.84-2.28-7.68s-3.96-2.76-7.08-2.76c-5.04 0-10.48 2.84-16.32 8.52v15.12l.48 24.12h-9.48l.6-23.28-.48-31.08 9-.84v8.04h.72c4.96-4.4 10.04-7.24 15.24-8.52 6 0 10.58 1.4 13.74 4.2s4.7 6.8 4.62 12l-.24 15.6.48 23.88h-9.6z" fill="#afa7a0"/><path d="m1251.84 60.12.36 12.36c.08 1.68.36 2.86.84 3.54s1.36 1.02 2.64 1.02 2.64-.24 4.08-.72l.96.84-.96 5.4c-2.16 1.36-4.4 2.16-6.72 2.4-2.48-.24-4.42-1.08-5.82-2.52s-2.26-3.4-2.58-5.88h-.84c-2.4 2.08-4.56 3.74-6.48 4.98s-4.12 2.34-6.6 3.3c-7.92 0-14-2.42-18.24-7.26s-6.36-11.74-6.36-20.7 2.36-16.06 7.08-21.06 11.24-7.5 19.56-7.5c3.76 0 7.28.4 10.56 1.2l-.12-28.68 9.48-.84zm-32.28-19.86c-2.96 3.48-4.44 8.5-4.44 15.06s1.34 12.08 4.02 15.84 6.38 5.64 11.1 5.64c2.24 0 4.42-.56 6.54-1.68s4.34-3 6.66-5.64l.24-8.64-.36-22.8c-4.24-2-8.12-3-11.64-3-5.12 0-9.16 1.74-12.12 5.22z" fill="#afa7a0"/><path d="m1277.16 56.4v.24c0 6.72 1.52 11.88 4.56 15.48s7.36 5.4 12.96 5.4c2.8 0 5.6-.46 8.4-1.38s5.36-2.22 7.68-3.9l.96.72-1.44 8.16c-5.6 2.72-11.2 4.08-16.8 4.08-7.84 0-14-2.5-18.48-7.5s-6.72-11.86-6.72-20.58 2.24-15.8 6.72-21 10.52-7.8 18.12-7.8c6.4 0 11.36 1.82 14.88 5.46s5.28 8.7 5.28 15.18c0 2.16-.16 4.2-.48 6.12l-1.2 1.2zm5.94-17.46c-2.68 2.6-4.46 6.26-5.34 10.98l26.52-.48.24-1.68c0-4.08-.98-7.22-2.94-9.42s-4.78-3.3-8.46-3.3c-4 0-7.34 1.3-10.02 3.9z" fill="#afa7a0"/><path d="m1356.48 29.4v9.24l-1.08.36c-1.36-.4-2.84-.6-4.44-.6-2.64 0-5.06 1.06-7.26 3.18s-4.38 5.5-6.54 10.14l-.12 8.4.6 24.12h-9.48l.6-23.28-.48-31.08 9-.84-.12 11.28h.72c2.24-4 4.72-6.86 7.44-8.58s5.4-2.58 8.04-2.58c.96 0 2 .08 3.12.24z" fill="#afa7a0"/><path d="m1395.12 31.08-1.32 7.8-1.44.36c-4-2.64-7.84-3.96-11.52-3.96-2.72 0-4.92.76-6.6 2.28s-2.52 3.36-2.52 5.52.86 3.9 2.58 5.22 4.38 2.82 7.98 4.5c3.12 1.44 5.62 2.74 7.5 3.9s3.5 2.7 4.86 4.62 2.04 4.28 2.04 7.08c0 2.96-.76 5.72-2.28 8.28s-3.76 4.62-6.72 6.18-6.48 2.34-10.56 2.34c-5.6 0-10.92-1.32-15.96-3.96l1.2-8.16 1.08-.72c2.24 1.92 4.66 3.4 7.26 4.44s5.06 1.56 7.38 1.56c2.96 0 5.36-.82 7.2-2.46s2.76-3.58 2.76-5.82-.86-3.9-2.58-5.22-4.38-2.82-7.98-4.5c-3.12-1.44-5.64-2.74-7.56-3.9s-3.56-2.74-4.92-4.74-2.04-4.48-2.04-7.44c0-4.64 1.7-8.44 5.1-11.4s8.02-4.44 13.86-4.44c4.56 0 8.96.88 13.2 2.64z" fill="#afa7a0"/><path d="m1420.2 6.12c.96.96 1.44 2.28 1.44 3.96s-.5 3.16-1.5 4.2-2.38 1.56-4.14 1.56-2.98-.48-3.9-1.44-1.38-2.32-1.38-4.08.5-3.04 1.5-4.08 2.38-1.56 4.14-1.56c1.6 0 2.88.48 3.84 1.44zm-8.28 54.84-.36-31.08 9.24-.84-.24 31.08.24 24.12h-9.36z" fill="#afa7a0"/><path d="m1481.52 60.12.36 12.36c.08 1.68.36 2.86.84 3.54s1.36 1.02 2.64 1.02 2.64-.24 4.08-.72l.96.84-.96 5.4c-2.16 1.36-4.4 2.16-6.72 2.4-2.48-.24-4.42-1.08-5.82-2.52s-2.26-3.4-2.58-5.88h-.84c-2.4 2.08-4.56 3.74-6.48 4.98s-4.12 2.34-6.6 3.3c-7.92 0-14-2.42-18.24-7.26s-6.36-11.74-6.36-20.7 2.36-16.06 7.08-21.06 11.24-7.5 19.56-7.5c3.76 0 7.28.4 10.56 1.2l-.12-28.68 9.48-.84zm-32.28-19.86c-2.96 3.48-4.44 8.5-4.44 15.06s1.34 12.08 4.02 15.84 6.38 5.64 11.1 5.64c2.24 0 4.42-.56 6.54-1.68s4.34-3 6.66-5.64l.24-8.64-.36-22.8c-4.24-2-8.12-3-11.64-3-5.12 0-9.16 1.74-12.12 5.22z" fill="#afa7a0"/><path d="m1506.83 56.4v.24c0 6.72 1.52 11.88 4.56 15.48s7.36 5.4 12.96 5.4c2.8 0 5.6-.46 8.4-1.38s5.36-2.22 7.68-3.9l.96.72-1.44 8.16c-5.6 2.72-11.2 4.08-16.8 4.08-7.84 0-14-2.5-18.48-7.5s-6.72-11.86-6.72-20.58 2.24-15.8 6.72-21 10.52-7.8 18.12-7.8c6.4 0 11.36 1.82 14.88 5.46s5.28 8.7 5.28 15.18c0 2.16-.16 4.2-.48 6.12l-1.2 1.2zm5.94-17.46c-2.68 2.6-4.46 6.26-5.34 10.98l26.52-.48.24-1.68c0-4.08-.98-7.22-2.94-9.42s-4.78-3.3-8.46-3.3c-4 0-7.34 1.3-10.02 3.9z" fill="#afa7a0"/><path d="m2186.64 10.32-1.56 9.24-1.68.48c-2.32-1.76-4.78-3.12-7.38-4.08s-5.18-1.44-7.74-1.44c-2.96 0-5.54.6-7.74 1.8s-3.88 2.76-5.04 4.68-1.74 3.92-1.74 6 .66 4.06 1.98 5.7 2.98 3.06 4.98 4.26 4.72 2.64 8.16 4.32c4.32 2 7.8 3.86 10.44 5.58s4.9 3.9 6.78 6.54 2.82 5.84 2.82 9.6c0 4-1.08 7.68-3.24 11.04s-5.2 6.04-9.12 8.04-8.4 3-13.44 3c-3.36 0-6.86-.46-10.5-1.38s-7.02-2.26-10.14-4.02l1.2-9.84 1.32-.6c2.8 2.72 5.9 4.74 9.3 6.06s6.66 1.98 9.78 1.98 5.74-.6 8.1-1.8 4.16-2.8 5.4-4.8 1.86-4.12 1.86-6.36c0-3.36-1.28-6.06-3.84-8.1s-6.44-4.26-11.64-6.66c-4.24-2.08-7.64-3.94-10.2-5.58s-4.76-3.76-6.6-6.36-2.76-5.78-2.76-9.54 1.06-7.52 3.18-10.8 5.08-5.86 8.88-7.74 8.14-2.82 13.02-2.82c5.52 0 11.24 1.2 17.16 3.6z" fill="#afa7a0"/><path d="m2212.56 6.12c.96.96 1.44 2.28 1.44 3.96s-.5 3.16-1.5 4.2-2.38 1.56-4.14 1.56-2.98-.48-3.9-1.44-1.38-2.32-1.38-4.08.5-3.04 1.5-4.08 2.38-1.56 4.14-1.56c1.6 0 2.88.48 3.84 1.44zm-8.28 54.84-.36-31.08 9.24-.84-.24 31.08.24 24.12h-9.36z" fill="#afa7a0"/><path d="m2273.88 60.12.36 12.36c.08 1.68.36 2.86.84 3.54s1.36 1.02 2.64 1.02 2.64-.24 4.08-.72l.96.84-.96 5.4c-2.16 1.36-4.4 2.16-6.72 2.4-2.48-.24-4.42-1.08-5.82-2.52s-2.26-3.4-2.58-5.88h-.84c-2.4 2.08-4.56 3.74-6.48 4.98s-4.12 2.34-6.6 3.3c-7.92 0-14-2.42-18.24-7.26s-6.36-11.74-6.36-20.7 2.36-16.06 7.08-21.06 11.24-7.5 19.56-7.5c3.76 0 7.28.4 10.56 1.2l-.12-28.68 9.48-.84zm-32.28-19.86c-2.96 3.48-4.44 8.5-4.44 15.06s1.34 12.08 4.02 15.84 6.38 5.64 11.1 5.64c2.24 0 4.42-.56 6.54-1.68s4.34-3 6.66-5.64l.24-8.64-.36-22.8c-4.24-2-8.12-3-11.64-3-5.12 0-9.16 1.74-12.12 5.22z" fill="#afa7a0"/><path d="m2299.2 56.4v.24c0 6.72 1.52 11.88 4.56 15.48s7.36 5.4 12.96 5.4c2.8 0 5.6-.46 8.4-1.38s5.36-2.22 7.68-3.9l.96.72-1.44 8.16c-5.6 2.72-11.2 4.08-16.8 4.08-7.84 0-14-2.5-18.48-7.5s-6.72-11.86-6.72-20.58 2.24-15.8 6.72-21 10.52-7.8 18.12-7.8c6.4 0 11.36 1.82 14.88 5.46s5.28 8.7 5.28 15.18c0 2.16-.16 4.2-.48 6.12l-1.2 1.2zm5.94-17.46c-2.68 2.6-4.46 6.26-5.34 10.98l26.52-.48.24-1.68c0-4.08-.98-7.22-2.94-9.42s-4.78-3.3-8.46-3.3c-4 0-7.34 1.3-10.02 3.9z" fill="#afa7a0"/><path d="m2353.44 36.24 11.88 38.52h.72l13.92-38.04 1.92-7.44h8.52l-20.16 54.96h-10.2l-17.04-54.72 8.88-.6z" fill="#afa7a0"/><path d="m2409.83 6.12c.96.96 1.44 2.28 1.44 3.96s-.5 3.16-1.5 4.2-2.38 1.56-4.14 1.56-2.98-.48-3.9-1.44-1.38-2.32-1.38-4.08.5-3.04 1.5-4.08 2.38-1.56 4.14-1.56c1.6 0 2.88.48 3.84 1.44zm-8.28 54.84-.36-31.08 9.24-.84-.24 31.08.24 24.12h-9.36z" fill="#afa7a0"/><path d="m2434.31 56.4v.24c0 6.72 1.52 11.88 4.56 15.48s7.36 5.4 12.96 5.4c2.8 0 5.6-.46 8.4-1.38s5.36-2.22 7.68-3.9l.96.72-1.44 8.16c-5.6 2.72-11.2 4.08-16.8 4.08-7.84 0-14-2.5-18.48-7.5s-6.72-11.86-6.72-20.58 2.24-15.8 6.72-21 10.52-7.8 18.12-7.8c6.4 0 11.36 1.82 14.88 5.46s5.28 8.7 5.28 15.18c0 2.16-.16 4.2-.48 6.12l-1.2 1.2zm5.94-17.46c-2.68 2.6-4.46 6.26-5.34 10.98l26.52-.48.24-1.68c0-4.08-.98-7.22-2.94-9.42s-4.78-3.3-8.46-3.3c-4 0-7.34 1.3-10.02 3.9z" fill="#afa7a0"/><path d="m2488.19 36 10.08 37.92h.72l11.64-37.44 1.8-7.2h9.36l1.32 6.72 10.08 37.92h.72l11.64-37.44 1.8-7.2h8.28l-18.12 54.96h-9l-11.52-42.6h-.84l-13.32 42.6h-9.36l-15.36-54.72 8.76-.6z" fill="#afa7a0"/><path d="m3269.76 60.24.24 24h-9.48l.48-23.16-.12-11.52-21.36-.12-19.56.12-.12 10.68.36 24h-9.48l.36-23.16-.36-53.76h9.6l-.36 34.08 20.4.12 20.52-.12-.36-34.08h9.72z" fill="#afa7a0"/><path d="m3319.14 32.16c3 2.56 4.5 6.08 4.5 10.56 0 1.36-.24 6.28-.72 14.76s-.72 13.44-.72 14.88c0 1.76.28 2.98.84 3.66s1.52 1.02 2.88 1.02c1.2 0 2.56-.24 4.08-.72l.96.84-.96 5.4c-2.32 1.36-4.6 2.16-6.84 2.4-2.48-.24-4.46-1.12-5.94-2.64s-2.26-3.6-2.34-6.24h-.84c-4.32 4.4-8.6 7.4-12.84 9-5.36 0-9.54-1.34-12.54-4.02s-4.5-6.34-4.5-10.98c0-3.52.94-6.32 2.82-8.4s4.66-3.56 8.34-4.44l19.44-4.56.12-7.8c0-3.12-.82-5.52-2.46-7.2s-3.98-2.52-7.02-2.52c-2.72 0-5.44.64-8.16 1.92s-5.64 3.28-8.76 6l-.96-.48-1.2-6.84c6.64-4.96 13.48-7.44 20.52-7.44 5.2 0 9.3 1.28 12.3 3.84zm-21.9 30.84c-1.6.48-2.76 1.14-3.48 1.98s-1.08 2.1-1.08 3.78c0 2.64.74 4.7 2.22 6.18s3.46 2.22 5.94 2.22c4.4 0 8.88-2.84 13.44-8.52l.36-9.84z" fill="#afa7a0"/><path d="m3353.52 60.12.6 24.12h-9.48l.72-23.4-.6-60 9.48-.84z" fill="#afa7a0"/><path d="m3376.92 36.24 11.88 38.52h.72l13.92-38.04 1.92-7.44h8.52l-20.16 54.96h-10.2l-17.04-54.72 8.88-.6z" fill="#afa7a0"/><path d="m3427.08 56.4v.24c0 6.72 1.52 11.88 4.56 15.48s7.36 5.4 12.96 5.4c2.8 0 5.6-.46 8.4-1.38s5.36-2.22 7.68-3.9l.96.72-1.44 8.16c-5.6 2.72-11.2 4.08-16.8 4.08-7.84 0-14-2.5-18.48-7.5s-6.72-11.86-6.72-20.58 2.24-15.8 6.72-21 10.52-7.8 18.12-7.8c6.4 0 11.36 1.82 14.88 5.46s5.28 8.7 5.28 15.18c0 2.16-.16 4.2-.48 6.12l-1.2 1.2zm5.94-17.46c-2.68 2.6-4.46 6.26-5.34 10.98l26.52-.48.24-1.68c0-4.08-.98-7.22-2.94-9.42s-4.78-3.3-8.46-3.3c-4 0-7.34 1.3-10.02 3.9z" fill="#afa7a0"/><path d="m3519.24 60.12.36 12.36c.08 1.68.36 2.86.84 3.54s1.36 1.02 2.64 1.02 2.64-.24 4.08-.72l.96.84-.96 5.4c-2.16 1.36-4.4 2.16-6.72 2.4-2.48-.24-4.42-1.08-5.82-2.52s-2.26-3.4-2.58-5.88h-.84c-2.4 2.08-4.56 3.74-6.48 4.98s-4.12 2.34-6.6 3.3c-7.92 0-14-2.42-18.24-7.26s-6.36-11.74-6.36-20.7 2.36-16.06 7.08-21.06 11.24-7.5 19.56-7.5c3.76 0 7.28.4 10.56 1.2l-.12-28.68 9.48-.84zm-32.28-19.86c-2.96 3.48-4.44 8.5-4.44 15.06s1.34 12.08 4.02 15.84 6.38 5.64 11.1 5.64c2.24 0 4.42-.56 6.54-1.68s4.34-3 6.66-5.64l.24-8.64-.36-22.8c-4.24-2-8.12-3-11.64-3-5.12 0-9.16 1.74-12.12 5.22z" fill="#afa7a0"/><path d="m4625.2 62.76c0 7.28-2.64 12.76-7.92 16.44s-13.16 5.52-23.64 5.52c-7.04 0-12.68-.16-16.92-.48h-.12l.6-23.16-.6-53.76 21.36-.12c7.2 0 12.74 1.6 16.62 4.8s5.82 7.84 5.82 13.92c0 4.32-1 8.04-3 11.16s-4.84 5.48-8.52 7.08c10.88 2.16 16.32 8.36 16.32 18.6zm-15 10.2c3.52-2.48 5.28-6.04 5.28-10.68 0-7.84-4.92-12.32-14.76-13.44l-14.76.12-.12 11.28.36 16.08c3.12.24 6.08.36 8.88.36 6.56 0 11.6-1.24 15.12-3.72zm-3.06-55.02c-2.28-1.88-5.98-2.82-11.1-2.82h-9.72l-.24 25.8 13.2.36c7.52-1.76 11.28-6.52 11.28-14.28 0-4.16-1.14-7.18-3.42-9.06z" fill="#afa7a0"/><path d="m4666.6 29.4v9.24l-1.08.36c-1.36-.4-2.84-.6-4.44-.6-2.64 0-5.06 1.06-7.26 3.18s-4.38 5.5-6.54 10.14l-.12 8.4.6 24.12h-9.48l.6-23.28-.48-31.08 9-.84-.12 11.28h.72c2.24-4 4.72-6.86 7.44-8.58s5.4-2.58 8.04-2.58c.96 0 2 .08 3.12.24z" fill="#afa7a0"/><path d="m4726.24 77.16-.96 5.4c-2.32 1.36-4.6 2.16-6.84 2.4-2.32-.32-4.18-1.14-5.58-2.46s-2.38-3.3-2.94-5.94h-.72c-4.8 4.32-9.76 7.12-14.88 8.4-5.92 0-10.42-1.4-13.5-4.2s-4.58-6.8-4.5-12l.12-15.24-.36-23.64 9.6-.84-.72 37.44c0 3.28.78 5.84 2.34 7.68s3.86 2.76 6.9 2.76c4.96 0 9.92-2.4 14.88-7.2v-39.84l9.12-.84-.6 43.44c0 1.68.26 2.86.78 3.54s1.42 1.02 2.7 1.02 2.68-.24 4.2-.72z" fill="#afa7a0"/><path d="m4747.12 6.12c.96.96 1.44 2.28 1.44 3.96s-.5 3.16-1.5 4.2-2.38 1.56-4.14 1.56-2.98-.48-3.9-1.44-1.38-2.32-1.38-4.08.5-3.04 1.5-4.08 2.38-1.56 4.14-1.56c1.6 0 2.88.48 3.84 1.44zm-8.28 54.84-.36-31.08 9.24-.84-.24 31.08.24 24.12h-9.36z" fill="#afa7a0"/><path d="m4795.48 31.08-1.32 7.8-1.44.36c-4-2.64-7.84-3.96-11.52-3.96-2.72 0-4.92.76-6.6 2.28s-2.52 3.36-2.52 5.52.86 3.9 2.58 5.22 4.38 2.82 7.98 4.5c3.12 1.44 5.62 2.74 7.5 3.9s3.5 2.7 4.86 4.62 2.04 4.28 2.04 7.08c0 2.96-.76 5.72-2.28 8.28s-3.76 4.62-6.72 6.18-6.48 2.34-10.56 2.34c-5.6 0-10.92-1.32-15.96-3.96l1.2-8.16 1.08-.72c2.24 1.92 4.66 3.4 7.26 4.44s5.06 1.56 7.38 1.56c2.96 0 5.36-.82 7.2-2.46s2.76-3.58 2.76-5.82-.86-3.9-2.58-5.22-4.38-2.82-7.98-4.5c-3.12-1.44-5.64-2.74-7.56-3.9s-3.56-2.74-4.92-4.74-2.04-4.48-2.04-7.44c0-4.64 1.7-8.44 5.1-11.4s8.02-4.44 13.86-4.44c4.56 0 8.96.88 13.2 2.64z" fill="#afa7a0"/><path d="m4820.56 6.12c.96.96 1.44 2.28 1.44 3.96s-.5 3.16-1.5 4.2-2.38 1.56-4.14 1.56-2.98-.48-3.9-1.44-1.38-2.32-1.38-4.08.5-3.04 1.5-4.08 2.38-1.56 4.14-1.56c1.6 0 2.88.48 3.84 1.44zm-8.28 54.84-.36-31.08 9.24-.84-.24 31.08.24 24.12h-9.36z" fill="#afa7a0"/><path d="m4875.4 46.92c.08-3.28-.68-5.84-2.28-7.68s-3.96-2.76-7.08-2.76c-5.04 0-10.48 2.84-16.32 8.52v15.12l.48 24.12h-9.48l.6-23.28-.48-31.08 9-.84v8.04h.72c4.96-4.4 10.04-7.24 15.24-8.52 6 0 10.58 1.4 13.74 4.2s4.7 6.8 4.62 12l-.24 15.6.48 23.88h-9.6z" fill="#afa7a0"/><path d="m4940.19 36.48-.24.48c1.76 2.8 2.64 6.2 2.64 10.2 0 5.84-1.94 10.48-5.82 13.92s-9.14 5.16-15.78 5.16c-2.64 0-5.12-.32-7.44-.96-1.36 1.04-2.28 1.88-2.76 2.52s-.72 1.36-.72 2.16c0 1.68 1.04 2.86 3.12 3.54s5.48 1.38 10.2 2.1c4.64.64 8.44 1.36 11.4 2.16s5.52 2.1 7.68 3.9 3.24 4.3 3.24 7.5c0 3.36-1.14 6.44-3.42 9.24s-5.4 5-9.36 6.6-8.3 2.4-13.02 2.4c-6.4 0-11.38-1.46-14.94-4.38s-5.34-6.7-5.34-11.34c1.92-3.84 5.44-7.32 10.56-10.44v-.6c-2.88-.88-5.1-2.06-6.66-3.54s-2.34-3.5-2.34-6.06c1.68-2.8 4.12-5.24 7.32-7.32v-.48c-2.56-1.6-4.5-3.7-5.82-6.3s-1.98-5.62-1.98-9.06c0-6 1.94-10.7 5.82-14.1s9.06-5.1 15.54-5.1c4.24 0 7.84.72 10.8 2.16 5.52-1.04 11.32-2.4 17.4-4.08l.96.72v6.48c-2.48.72-6.16 1.56-11.04 2.52zm-6.9 48.96c-2.68-1.04-6.74-1.96-12.18-2.76l-3.84-.6c-3.04 1.84-5.34 3.6-6.9 5.28s-2.34 3.44-2.34 5.28c0 2.32 1.14 4.24 3.42 5.76s5.46 2.28 9.54 2.28c4.64 0 8.52-.94 11.64-2.82s4.68-4.18 4.68-6.9-1.34-4.48-4.02-5.52zm-2.52-29.04c2.2-2.24 3.3-5.36 3.3-9.36s-1.04-6.8-3.12-8.88-5.08-3.12-9-3.12-7.12 1.08-9.36 3.24-3.36 5.24-3.36 9.24 1.06 6.84 3.18 9 5.14 3.24 9.06 3.24 7.1-1.12 9.3-3.36z" fill="#afa7a0"/><path d="m5647.84 60.24.36 24h-9.48l.36-23.16-.36-53.76h9.6zm11.88-16.8c10.64 13.76 21.76 26.68 33.36 38.76l-.12 1.2c-2.4.72-5.4 1.36-9 1.92l-1.2-.6c-12.64-14.32-23.68-27.92-33.12-40.8v-.72l25.68-29.16 4.8-6.72h10.8z" fill="#afa7a0"/><path d="m5753.74 16.32c5.64 6.48 8.46 15.8 8.46 27.96 0 13.12-3 23.22-9 30.3s-14.56 10.62-25.68 10.62c-10.4 0-18.42-3.36-24.06-10.08s-8.46-16.28-8.46-28.68 2.98-22.64 8.94-29.52 14.46-10.32 25.5-10.32 18.66 3.24 24.3 9.72zm-48.9 29.04c0 10.96 1.94 19.08 5.82 24.36s9.74 7.92 17.58 7.92c16 0 24-10.52 24-31.56 0-10.72-1.94-18.68-5.82-23.88s-9.74-7.8-17.58-7.8c-16 0-24 10.32-24 30.96z" fill="#afa7a0"/><path d="m5836.96 60.24.24 24h-9.48l.48-23.16-.12-11.52-21.36-.12-19.56.12-.12 10.68.36 24h-9.48l.36-23.16-.36-53.76h9.6l-.36 34.08 20.4.12 20.52-.12-.36-34.08h9.72z" fill="#afa7a0"/><path d="m5924.8 8.28-.72 7.44-13.44-.72h-7.8l-.36 45.24.36 24h-9.72l.72-23.16-.6-46.08h-7.8l-13.68.72-.6-.96.72-7.44h52.2l.72.96z" fill="#afa7a0"/><path d="m5933.32 56.4v.24c0 6.72 1.52 11.88 4.56 15.48s7.36 5.4 12.96 5.4c2.8 0 5.6-.46 8.4-1.38s5.36-2.22 7.68-3.9l.96.72-1.44 8.16c-5.6 2.72-11.2 4.08-16.8 4.08-7.84 0-14-2.5-18.48-7.5s-6.72-11.86-6.72-20.58 2.24-15.8 6.72-21 10.52-7.8 18.12-7.8c6.4 0 11.36 1.82 14.88 5.46s5.28 8.7 5.28 15.18c0 2.16-.16 4.2-.48 6.12l-1.2 1.2zm5.94-17.46c-2.68 2.6-4.46 6.26-5.34 10.98l26.52-.48.24-1.68c0-4.08-.98-7.22-2.94-9.42s-4.78-3.3-8.46-3.3c-4 0-7.34 1.3-10.02 3.9z" fill="#afa7a0"/><path d="m6012.52 31.08-1.32 7.8-1.44.36c-4-2.64-7.84-3.96-11.52-3.96-2.72 0-4.92.76-6.6 2.28s-2.52 3.36-2.52 5.52.86 3.9 2.58 5.22 4.38 2.82 7.98 4.5c3.12 1.44 5.62 2.74 7.5 3.9s3.5 2.7 4.86 4.62 2.04 4.28 2.04 7.08c0 2.96-.76 5.72-2.28 8.28s-3.76 4.62-6.72 6.18-6.48 2.34-10.56 2.34c-5.6 0-10.92-1.32-15.96-3.96l1.2-8.16 1.08-.72c2.24 1.92 4.66 3.4 7.26 4.44s5.06 1.56 7.38 1.56c2.96 0 5.36-.82 7.2-2.46s2.76-3.58 2.76-5.82-.86-3.9-2.58-5.22-4.38-2.82-7.98-4.5c-3.12-1.44-5.64-2.74-7.56-3.9s-3.56-2.74-4.92-4.74-2.04-4.48-2.04-7.44c0-4.64 1.7-8.44 5.1-11.4s8.02-4.44 13.86-4.44c4.56 0 8.96.88 13.2 2.64z" fill="#afa7a0"/><path d="m6054.64 74.52 1.08.72-.96 6.24c-4.32 2-8.32 3.16-12 3.48-4.56-.88-7.84-2.56-9.84-5.04s-3-6.08-3-10.8l.36-8.52-.12-24.84h-7.56l-.48-.72.6-5.64h7.32v-8.88l8.28-3.6.96.84-.24 11.64h16.32l.48.72-.6 5.64h-16.2l-.6 32.52c-.08 3.2.48 5.44 1.68 6.72s3.16 1.92 5.88 1.92 5.52-.8 8.64-2.4z" fill="#afa7a0"/><path d="m44.64 2233.32-1.56 9.24-1.68.48c-2.32-1.76-4.78-3.12-7.38-4.08s-5.18-1.44-7.74-1.44c-2.96 0-5.54.6-7.74 1.8s-3.88 2.76-5.04 4.68-1.74 3.92-1.74 6 .66 4.06 1.98 5.7 2.98 3.06 4.98 4.26 4.72 2.64 8.16 4.32c4.32 2 7.8 3.86 10.44 5.58s4.9 3.9 6.78 6.54 2.82 5.84 2.82 9.6c0 4-1.08 7.68-3.24 11.04s-5.2 6.04-9.12 8.04-8.4 3-13.44 3c-3.36 0-6.86-.46-10.5-1.38s-7.02-2.26-10.14-4.02l1.2-9.84 1.32-.6c2.8 2.72 5.9 4.74 9.3 6.06s6.66 1.98 9.78 1.98 5.74-.6 8.1-1.8 4.16-2.8 5.4-4.8 1.86-4.12 1.86-6.36c0-3.36-1.28-6.06-3.84-8.1s-6.44-4.26-11.64-6.66c-4.24-2.08-7.64-3.94-10.2-5.58s-4.76-3.76-6.6-6.36-2.76-5.78-2.76-9.54 1.06-7.52 3.18-10.8 5.08-5.86 8.88-7.74 8.14-2.82 13.02-2.82c5.52 0 11.24 1.2 17.16 3.6z" fill="#afa7a0"/><path d="m87.6 2297.52 1.08.72-.96 6.24c-4.32 2-8.32 3.16-12 3.48-4.56-.88-7.84-2.56-9.84-5.04s-3-6.08-3-10.8l.36-8.52-.12-24.84h-7.56l-.48-.72.6-5.64h7.32v-8.88l8.28-3.6.96.84-.24 11.64h16.32l.48.72-.6 5.64h-16.2l-.6 32.52c-.08 3.2.48 5.44 1.68 6.72s3.16 1.92 5.88 1.92 5.52-.8 8.64-2.4z" fill="#afa7a0"/><path d="m102.6 2279.4v.24c0 6.72 1.52 11.88 4.56 15.48s7.36 5.4 12.96 5.4c2.8 0 5.6-.46 8.4-1.38s5.36-2.22 7.68-3.9l.96.72-1.44 8.16c-5.6 2.72-11.2 4.08-16.8 4.08-7.84 0-14-2.5-18.48-7.5s-6.72-11.86-6.72-20.58 2.24-15.8 6.72-21 10.52-7.8 18.12-7.8c6.4 0 11.36 1.82 14.88 5.46s5.28 8.7 5.28 15.18c0 2.16-.16 4.2-.48 6.12l-1.2 1.2zm5.94-17.46c-2.68 2.6-4.46 6.26-5.34 10.98l26.52-.48.24-1.68c0-4.08-.98-7.22-2.94-9.42s-4.78-3.3-8.46-3.3c-4 0-7.34 1.3-10.02 3.9z" fill="#afa7a0"/><path d="m222.36 2269.92c.08-3.28-.68-5.84-2.28-7.68s-3.96-2.76-7.08-2.76c-5.12 0-10.44 2.76-15.96 8.28l-.24 15.6.48 23.88h-9.72l.72-37.32c.08-3.28-.68-5.84-2.28-7.68s-3.96-2.76-7.08-2.76c-5.04 0-10.48 2.84-16.32 8.52v15.12l.48 24.12h-9.48l.6-23.28-.48-31.08 9-.84v8.04h.72c4.96-4.4 10.04-7.24 15.24-8.52 4.48 0 8.16.78 11.04 2.34s4.92 3.82 6.12 6.78h.72c5.04-4.56 10.44-7.6 16.2-9.12 6.08 0 10.68 1.4 13.8 4.2s4.64 6.8 4.56 12l-.24 15.6.48 23.88h-9.6z" fill="#afa7a0"/><path d="m1115.64 2233.32-1.56 9.24-1.68.48c-2.32-1.76-4.78-3.12-7.38-4.08s-5.18-1.44-7.74-1.44c-2.96 0-5.54.6-7.74 1.8s-3.88 2.76-5.04 4.68-1.74 3.92-1.74 6 .66 4.06 1.98 5.7 2.98 3.06 4.98 4.26 4.72 2.64 8.16 4.32c4.32 2 7.8 3.86 10.44 5.58s4.9 3.9 6.78 6.54 2.82 5.84 2.82 9.6c0 4-1.08 7.68-3.24 11.04s-5.2 6.04-9.12 8.04-8.4 3-13.44 3c-3.36 0-6.86-.46-10.5-1.38s-7.02-2.26-10.14-4.02l1.2-9.84 1.32-.6c2.8 2.72 5.9 4.74 9.3 6.06s6.66 1.98 9.78 1.98 5.74-.6 8.1-1.8 4.16-2.8 5.4-4.8 1.86-4.12 1.86-6.36c0-3.36-1.28-6.06-3.84-8.1s-6.44-4.26-11.64-6.66c-4.24-2.08-7.64-3.94-10.2-5.58s-4.76-3.76-6.6-6.36-2.76-5.78-2.76-9.54 1.06-7.52 3.18-10.8 5.08-5.86 8.88-7.74 8.14-2.82 13.02-2.82c5.52 0 11.24 1.2 17.16 3.6z" fill="#afa7a0"/><path d="m1173.48 2258.52c3.68 4.56 5.52 11.08 5.52 19.56 0 9.6-2.32 17.02-6.96 22.26s-11.24 7.86-19.8 7.86c-3.36 0-6.84-.36-10.44-1.08l.24 22.32h-9.36l.6-45.48-.6-31.08 9.12-.84-.12 7.8h.84c2.8-2.32 5.32-4.08 7.56-5.28s4.76-2.16 7.56-2.88c6.88 0 12.16 2.28 15.84 6.84zm-7.8 37.2c2.88-3.68 4.32-8.92 4.32-15.72s-1.14-11.72-3.42-15.24-5.54-5.28-9.78-5.28c-2.48 0-4.94.68-7.38 2.04s-5.02 3.48-7.74 6.36l-.12 15.24.12 15c3.92 2.08 7.84 3.12 11.76 3.12 5.28 0 9.36-1.84 12.24-5.52z" fill="#afa7a0"/><path d="m1231.62 2258.58c4.12 4.84 6.18 11.66 6.18 20.46 0 9.28-2.16 16.46-6.48 21.54s-10.48 7.62-18.48 7.62c-7.52 0-13.34-2.42-17.46-7.26s-6.18-11.66-6.18-20.46c0-9.28 2.18-16.46 6.54-21.54s10.54-7.62 18.54-7.62c7.44 0 13.22 2.42 17.34 7.26zm-29.46 4.62c-2.64 3.44-3.96 8.48-3.96 15.12 0 7.68 1.3 13.44 3.9 17.28s6.38 5.76 11.34 5.76 8.88-1.68 11.52-5.04 3.96-8.4 3.96-15.12c0-7.6-1.3-13.36-3.9-17.28s-6.38-5.88-11.34-5.88-8.88 1.72-11.52 5.16z" fill="#afa7a0"/><path d="m1279.8 2252.4v9.24l-1.08.36c-1.36-.4-2.84-.6-4.44-.6-2.64 0-5.06 1.06-7.26 3.18s-4.38 5.5-6.54 10.14l-.12 8.4.6 24.12h-9.48l.6-23.28-.48-31.08 9-.84-.12 11.28h.72c2.24-4 4.72-6.86 7.44-8.58s5.4-2.58 8.04-2.58c.96 0 2 .08 3.12.24z" fill="#afa7a0"/><path d="m1294.44 2279.4v.24c0 6.72 1.52 11.88 4.56 15.48s7.36 5.4 12.96 5.4c2.8 0 5.6-.46 8.4-1.38s5.36-2.22 7.68-3.9l.96.72-1.44 8.16c-5.6 2.72-11.2 4.08-16.8 4.08-7.84 0-14-2.5-18.48-7.5s-6.72-11.86-6.72-20.58 2.24-15.8 6.72-21 10.52-7.8 18.12-7.8c6.4 0 11.36 1.82 14.88 5.46s5.28 8.7 5.28 15.18c0 2.16-.16 4.2-.48 6.12l-1.2 1.2zm5.94-17.46c-2.68 2.6-4.46 6.26-5.34 10.98l26.52-.48.24-1.68c0-4.08-.98-7.22-2.94-9.42s-4.78-3.3-8.46-3.3c-4 0-7.34 1.3-10.02 3.9z" fill="#afa7a0"/><path d="m1386.24 2258.52c3.68 4.56 5.52 11.08 5.52 19.56 0 9.6-2.32 17.02-6.96 22.26s-11.24 7.86-19.8 7.86c-3.36 0-6.84-.36-10.44-1.08l.24 22.32h-9.36l.6-45.48-.6-31.08 9.12-.84-.12 7.8h.84c2.8-2.32 5.32-4.08 7.56-5.28s4.76-2.16 7.56-2.88c6.88 0 12.16 2.28 15.84 6.84zm-7.8 37.2c2.88-3.68 4.32-8.92 4.32-15.72s-1.14-11.72-3.42-15.24-5.54-5.28-9.78-5.28c-2.48 0-4.94.68-7.38 2.04s-5.02 3.48-7.74 6.36l-.12 15.24.12 15c3.92 2.08 7.84 3.12 11.76 3.12 5.28 0 9.36-1.84 12.24-5.52z" fill="#afa7a0"/><path d="m1433.64 2252.4v9.24l-1.08.36c-1.36-.4-2.84-.6-4.44-.6-2.64 0-5.06 1.06-7.26 3.18s-4.38 5.5-6.54 10.14l-.12 8.4.6 24.12h-9.48l.6-23.28-.48-31.08 9-.84-.12 11.28h.72c2.24-4 4.72-6.86 7.44-8.58s5.4-2.58 8.04-2.58c.96 0 2 .08 3.12.24z" fill="#afa7a0"/><path d="m1452.96 2229.12c.96.96 1.44 2.28 1.44 3.96s-.5 3.16-1.5 4.2-2.38 1.56-4.14 1.56-2.98-.48-3.9-1.44-1.38-2.32-1.38-4.08.5-3.04 1.5-4.08 2.38-1.56 4.14-1.56c1.6 0 2.88.48 3.84 1.44zm-8.28 54.84-.36-31.08 9.24-.84-.24 31.08.24 24.12h-9.36z" fill="#afa7a0"/><path d="m1507.79 2269.92c.08-3.28-.68-5.84-2.28-7.68s-3.96-2.76-7.08-2.76c-5.04 0-10.48 2.84-16.32 8.52v15.12l.48 24.12h-9.48l.6-23.28-.48-31.08 9-.84v8.04h.72c4.96-4.4 10.04-7.24 15.24-8.52 6 0 10.58 1.4 13.74 4.2s4.7 6.8 4.62 12l-.24 15.6.48 23.88h-9.6z" fill="#afa7a0"/><path d="m1560.95 2297.52 1.08.72-.96 6.24c-4.32 2-8.32 3.16-12 3.48-4.56-.88-7.84-2.56-9.84-5.04s-3-6.08-3-10.8l.36-8.52-.12-24.84h-7.56l-.48-.72.6-5.64h7.32v-8.88l8.28-3.6.96.84-.24 11.64h16.32l.48.72-.6 5.64h-16.2l-.6 32.52c-.08 3.2.48 5.44 1.68 6.72s3.16 1.92 5.88 1.92 5.52-.8 8.64-2.4z" fill="#afa7a0"/><path d="m2224.8 2307.24h-8.64l-1.8-23.4-4.08-38.28h-.84l-21.36 52.8h-7.92l-20.28-52.8h-.96l-4.08 37.56-2.04 24.12h-8.16l8.04-76.92h10.92l3.96 11.76 16.68 43.8h.72l17.52-44.52 3.96-11.04h10.8z" fill="#afa7a0"/><path d="m2241.72 2259 13.2 37.92h.84l13.68-37.08 1.8-7.56h8.52l-19.68 53.04c-2 5.44-4.14 9.72-6.42 12.84s-5.04 5.58-8.28 7.38-7.5 3.34-12.78 4.62h-.84c-1.68-1.68-3-3.56-3.96-5.64l.24-1.08c6.08-1.2 10.74-2.9 13.98-5.1s6.26-5.9 9.06-11.1l-20.16-54.72 9-.6z" fill="#afa7a0"/><path d="m2316.54 2252.22c2.68.6 5.02 1.38 7.02 2.34l-1.68 8.28-1.08.36c-4.16-2.72-8.28-4.08-12.36-4.08-4.72 0-8.4 1.8-11.04 5.4s-3.96 8.64-3.96 15.12 1.38 11.58 4.14 15.3 6.58 5.58 11.46 5.58c2.16 0 4.42-.36 6.78-1.08s4.58-1.72 6.66-3l1.08.6-1.08 8.04c-4.88 2.08-9.76 3.12-14.64 3.12-7.28 0-13-2.5-17.16-7.5s-6.24-11.86-6.24-20.58 2.18-15.9 6.54-21.06 10.3-7.74 17.82-7.74c2.48 0 5.06.3 7.74.9z" fill="#afa7a0"/><path d="m2339.52 2279.4v.24c0 6.72 1.52 11.88 4.56 15.48s7.36 5.4 12.96 5.4c2.8 0 5.6-.46 8.4-1.38s5.36-2.22 7.68-3.9l.96.72-1.44 8.16c-5.6 2.72-11.2 4.08-16.8 4.08-7.84 0-14-2.5-18.48-7.5s-6.72-11.86-6.72-20.58 2.24-15.8 6.72-21 10.52-7.8 18.12-7.8c6.4 0 11.36 1.82 14.88 5.46s5.28 8.7 5.28 15.18c0 2.16-.16 4.2-.48 6.12l-1.2 1.2zm5.94-17.46c-2.68 2.6-4.46 6.26-5.34 10.98l26.52-.48.24-1.68c0-4.08-.98-7.22-2.94-9.42s-4.78-3.3-8.46-3.3c-4 0-7.34 1.3-10.02 3.9z" fill="#afa7a0"/><path d="m2399.88 2283.12.6 24.12h-9.48l.72-23.4-.6-60 9.48-.84z" fill="#afa7a0"/><path d="m2429.04 2229.12c.96.96 1.44 2.28 1.44 3.96s-.5 3.16-1.5 4.2-2.38 1.56-4.14 1.56-2.98-.48-3.9-1.44-1.38-2.32-1.38-4.08.5-3.04 1.5-4.08 2.38-1.56 4.14-1.56c1.6 0 2.88.48 3.84 1.44zm-8.28 54.84-.36-31.08 9.24-.84-.24 31.08.24 24.12h-9.36z" fill="#afa7a0"/><path d="m2498.4 2300.16-.96 5.4c-2.32 1.36-4.6 2.16-6.84 2.4-2.32-.32-4.18-1.14-5.58-2.46s-2.38-3.3-2.94-5.94h-.72c-4.8 4.32-9.76 7.12-14.88 8.4-5.92 0-10.42-1.4-13.5-4.2s-4.58-6.8-4.5-12l.12-15.24-.36-23.64 9.6-.84-.72 37.44c0 3.28.78 5.84 2.34 7.68s3.86 2.76 6.9 2.76c4.96 0 9.92-2.4 14.88-7.2v-39.84l9.12-.84-.6 43.44c0 1.68.26 2.86.78 3.54s1.42 1.02 2.7 1.02 2.68-.24 4.2-.72z" fill="#afa7a0"/><path d="m2577.96 2269.92c.08-3.28-.68-5.84-2.28-7.68s-3.96-2.76-7.08-2.76c-5.12 0-10.44 2.76-15.96 8.28l-.24 15.6.48 23.88h-9.72l.72-37.32c.08-3.28-.68-5.84-2.28-7.68s-3.96-2.76-7.08-2.76c-5.04 0-10.48 2.84-16.32 8.52v15.12l.48 24.12h-9.48l.6-23.28-.48-31.08 9-.84v8.04h.72c4.96-4.4 10.04-7.24 15.24-8.52 4.48 0 8.16.78 11.04 2.34s4.92 3.82 6.12 6.78h.72c5.04-4.56 10.44-7.6 16.2-9.12 6.08 0 10.68 1.4 13.8 4.2s4.64 6.8 4.56 12l-.24 15.6.48 23.88h-9.6z" fill="#afa7a0"/><path d="m3269.64 2284.68.24 22.56h-10.08l-39.84-61.56h-.6l-.12 36.24.12 25.32h-8.64l.36-22.8-.24-54.12h9.96l39.72 61.56h.84l-.12-61.08 9-.72z" fill="#afa7a0"/><path d="m3319.02 2255.16c3 2.56 4.5 6.08 4.5 10.56 0 1.36-.24 6.28-.72 14.76s-.72 13.44-.72 14.88c0 1.76.28 2.98.84 3.66s1.52 1.02 2.88 1.02c1.2 0 2.56-.24 4.08-.72l.96.84-.96 5.4c-2.32 1.36-4.6 2.16-6.84 2.4-2.48-.24-4.46-1.12-5.94-2.64s-2.26-3.6-2.34-6.24h-.84c-4.32 4.4-8.6 7.4-12.84 9-5.36 0-9.54-1.34-12.54-4.02s-4.5-6.34-4.5-10.98c0-3.52.94-6.32 2.82-8.4s4.66-3.56 8.34-4.44l19.44-4.56.12-7.8c0-3.12-.82-5.52-2.46-7.2s-3.98-2.52-7.02-2.52c-2.72 0-5.44.64-8.16 1.92s-5.64 3.28-8.76 6l-.96-.48-1.2-6.84c6.64-4.96 13.48-7.44 20.52-7.44 5.2 0 9.3 1.28 12.3 3.84zm-21.9 30.84c-1.6.48-2.76 1.14-3.48 1.98s-1.08 2.1-1.08 3.78c0 2.64.74 4.7 2.22 6.18s3.46 2.22 5.94 2.22c4.4 0 8.88-2.84 13.44-8.52l.36-9.84z" fill="#afa7a0"/><path d="m3369.96 2297.52 1.08.72-.96 6.24c-4.32 2-8.32 3.16-12 3.48-4.56-.88-7.84-2.56-9.84-5.04s-3-6.08-3-10.8l.36-8.52-.12-24.84h-7.56l-.48-.72.6-5.64h7.32v-8.88l8.28-3.6.96.84-.24 11.64h16.32l.48.72-.6 5.64h-16.2l-.6 32.52c-.08 3.2.48 5.44 1.68 6.72s3.16 1.92 5.88 1.92 5.52-.8 8.64-2.4z" fill="#afa7a0"/><path d="m3431.52 2300.16-.96 5.4c-2.32 1.36-4.6 2.16-6.84 2.4-2.32-.32-4.18-1.14-5.58-2.46s-2.38-3.3-2.94-5.94h-.72c-4.8 4.32-9.76 7.12-14.88 8.4-5.92 0-10.42-1.4-13.5-4.2s-4.58-6.8-4.5-12l.12-15.24-.36-23.64 9.6-.84-.72 37.44c0 3.28.78 5.84 2.34 7.68s3.86 2.76 6.9 2.76c4.96 0 9.92-2.4 14.88-7.2v-39.84l9.12-.84-.6 43.44c0 1.68.26 2.86.78 3.54s1.42 1.02 2.7 1.02 2.68-.24 4.2-.72z" fill="#afa7a0"/><path d="m3470.64 2252.4v9.24l-1.08.36c-1.36-.4-2.84-.6-4.44-.6-2.64 0-5.06 1.06-7.26 3.18s-4.38 5.5-6.54 10.14l-.12 8.4.6 24.12h-9.48l.6-23.28-.48-31.08 9-.84-.12 11.28h.72c2.24-4 4.72-6.86 7.44-8.58s5.4-2.58 8.04-2.58c.96 0 2 .08 3.12.24z" fill="#afa7a0"/><path d="m3510.3 2255.16c3 2.56 4.5 6.08 4.5 10.56 0 1.36-.24 6.28-.72 14.76s-.72 13.44-.72 14.88c0 1.76.28 2.98.84 3.66s1.52 1.02 2.88 1.02c1.2 0 2.56-.24 4.08-.72l.96.84-.96 5.4c-2.32 1.36-4.6 2.16-6.84 2.4-2.48-.24-4.46-1.12-5.94-2.64s-2.26-3.6-2.34-6.24h-.84c-4.32 4.4-8.6 7.4-12.84 9-5.36 0-9.54-1.34-12.54-4.02s-4.5-6.34-4.5-10.98c0-3.52.94-6.32 2.82-8.4s4.66-3.56 8.34-4.44l19.44-4.56.12-7.8c0-3.12-.82-5.52-2.46-7.2s-3.98-2.52-7.02-2.52c-2.72 0-5.44.64-8.16 1.92s-5.64 3.28-8.76 6l-.96-.48-1.2-6.84c6.64-4.96 13.48-7.44 20.52-7.44 5.2 0 9.3 1.28 12.3 3.84zm-21.9 30.84c-1.6.48-2.76 1.14-3.48 1.98s-1.08 2.1-1.08 3.78c0 2.64.74 4.7 2.22 6.18s3.46 2.22 5.94 2.22c4.4 0 8.88-2.84 13.44-8.52l.36-9.84z" fill="#afa7a0"/><path d="m3544.68 2283.12.6 24.12h-9.48l.72-23.4-.6-60 9.48-.84z" fill="#afa7a0"/><path d="m3645.48 2283.24.24 24h-9.48l.48-23.16-.12-11.52-21.36-.12-19.56.12-.12 10.68.36 24h-9.48l.36-23.16-.36-53.76h9.6l-.36 34.08 20.4.12 20.52-.12-.36-34.08h9.72z" fill="#afa7a0"/><path d="m3694.86 2255.16c3 2.56 4.5 6.08 4.5 10.56 0 1.36-.24 6.28-.72 14.76s-.72 13.44-.72 14.88c0 1.76.28 2.98.84 3.66s1.52 1.02 2.88 1.02c1.2 0 2.56-.24 4.08-.72l.96.84-.96 5.4c-2.32 1.36-4.6 2.16-6.84 2.4-2.48-.24-4.46-1.12-5.94-2.64s-2.26-3.6-2.34-6.24h-.84c-4.32 4.4-8.6 7.4-12.84 9-5.36 0-9.54-1.34-12.54-4.02s-4.5-6.34-4.5-10.98c0-3.52.94-6.32 2.82-8.4s4.66-3.56 8.34-4.44l19.44-4.56.12-7.8c0-3.12-.82-5.52-2.46-7.2s-3.98-2.52-7.02-2.52c-2.72 0-5.44.64-8.16 1.92s-5.64 3.28-8.76 6l-.96-.48-1.2-6.84c6.64-4.96 13.48-7.44 20.52-7.44 5.2 0 9.3 1.28 12.3 3.84zm-21.9 30.84c-1.6.48-2.76 1.14-3.48 1.98s-1.08 2.1-1.08 3.78c0 2.64.74 4.7 2.22 6.18s3.46 2.22 5.94 2.22c4.4 0 8.88-2.84 13.44-8.52l.36-9.84z" fill="#afa7a0"/><path d="m3761.33 2258.58c3.64 4.6 5.46 11.1 5.46 19.5 0 9.6-2.32 17.02-6.96 22.26s-11.12 7.86-19.44 7.86c-3.84 0-7.76-.88-11.76-2.64l-6.6 3-1.68-.96.72-23.4-.6-60.36 9.48-.84-.36 36.84h.72c2.72-2.24 5.2-3.96 7.44-5.16s4.8-2.2 7.68-3c6.96 0 12.26 2.3 15.9 6.9zm-7.98 37.26c2.96-3.6 4.44-8.92 4.44-15.96 0-6.48-1.14-11.5-3.42-15.06s-5.54-5.34-9.78-5.34c-2.48 0-4.94.68-7.38 2.04s-5.02 3.48-7.74 6.36l-.12 15.24.36 14.28c3.84 2.56 7.68 3.84 11.52 3.84 5.12 0 9.16-1.8 12.12-5.4z" fill="#afa7a0"/><path d="m3790.43 2229.12c.96.96 1.44 2.28 1.44 3.96s-.5 3.16-1.5 4.2-2.38 1.56-4.14 1.56-2.98-.48-3.9-1.44-1.38-2.32-1.38-4.08.5-3.04 1.5-4.08 2.38-1.56 4.14-1.56c1.6 0 2.88.48 3.84 1.44zm-8.28 54.84-.36-31.08 9.24-.84-.24 31.08.24 24.12h-9.36z" fill="#afa7a0"/><path d="m3836.51 2297.52 1.08.72-.96 6.24c-4.32 2-8.32 3.16-12 3.48-4.56-.88-7.84-2.56-9.84-5.04s-3-6.08-3-10.8l.36-8.52-.12-24.84h-7.56l-.48-.72.6-5.64h7.32v-8.88l8.28-3.6.96.84-.24 11.64h16.32l.48.72-.6 5.64h-16.2l-.6 32.52c-.08 3.2.48 5.44 1.68 6.72s3.16 1.92 5.88 1.92 5.52-.8 8.64-2.4z" fill="#afa7a0"/><path d="m3879.29 2255.16c3 2.56 4.5 6.08 4.5 10.56 0 1.36-.24 6.28-.72 14.76s-.72 13.44-.72 14.88c0 1.76.28 2.98.84 3.66s1.52 1.02 2.88 1.02c1.2 0 2.56-.24 4.08-.72l.96.84-.96 5.4c-2.32 1.36-4.6 2.16-6.84 2.4-2.48-.24-4.46-1.12-5.94-2.64s-2.26-3.6-2.34-6.24h-.84c-4.32 4.4-8.6 7.4-12.84 9-5.36 0-9.54-1.34-12.54-4.02s-4.5-6.34-4.5-10.98c0-3.52.94-6.32 2.82-8.4s4.66-3.56 8.34-4.44l19.44-4.56.12-7.8c0-3.12-.82-5.52-2.46-7.2s-3.98-2.52-7.02-2.52c-2.72 0-5.44.64-8.16 1.92s-5.64 3.28-8.76 6l-.96-.48-1.2-6.84c6.64-4.96 13.48-7.44 20.52-7.44 5.2 0 9.3 1.28 12.3 3.84zm-21.9 30.84c-1.6.48-2.76 1.14-3.48 1.98s-1.08 2.1-1.08 3.78c0 2.64.74 4.7 2.22 6.18s3.46 2.22 5.94 2.22c4.4 0 8.88-2.84 13.44-8.52l.36-9.84z" fill="#afa7a0"/><path d="m3930.23 2297.52 1.08.72-.96 6.24c-4.32 2-8.32 3.16-12 3.48-4.56-.88-7.84-2.56-9.84-5.04s-3-6.08-3-10.8l.36-8.52-.12-24.84h-7.56l-.48-.72.6-5.64h7.32v-8.88l8.28-3.6.96.84-.24 11.64h16.32l.48.72-.6 5.64h-16.2l-.6 32.52c-.08 3.2.48 5.44 1.68 6.72s3.16 1.92 5.88 1.92 5.52-.8 8.64-2.4z" fill="#afa7a0"/><path d="m4615 2300.04-.84 7.2h-37.92l.6-23.16-.6-53.76h9.84l-.6 52.92.36 15.96h28.44z" fill="#afa7a0"/><path d="m4655.38 2255.16c3 2.56 4.5 6.08 4.5 10.56 0 1.36-.24 6.28-.72 14.76s-.72 13.44-.72 14.88c0 1.76.28 2.98.84 3.66s1.52 1.02 2.88 1.02c1.2 0 2.56-.24 4.08-.72l.96.84-.96 5.4c-2.32 1.36-4.6 2.16-6.84 2.4-2.48-.24-4.46-1.12-5.94-2.64s-2.26-3.6-2.34-6.24h-.84c-4.32 4.4-8.6 7.4-12.84 9-5.36 0-9.54-1.34-12.54-4.02s-4.5-6.34-4.5-10.98c0-3.52.94-6.32 2.82-8.4s4.66-3.56 8.34-4.44l19.44-4.56.12-7.8c0-3.12-.82-5.52-2.46-7.2s-3.98-2.52-7.02-2.52c-2.72 0-5.44.64-8.16 1.92s-5.64 3.28-8.76 6l-.96-.48-1.2-6.84c6.64-4.96 13.48-7.44 20.52-7.44 5.2 0 9.3 1.28 12.3 3.84zm-21.9 30.84c-1.6.48-2.76 1.14-3.48 1.98s-1.08 2.1-1.08 3.78c0 2.64.74 4.7 2.22 6.18s3.46 2.22 5.94 2.22c4.4 0 8.88-2.84 13.44-8.52l.36-9.84z" fill="#afa7a0"/><path d="m4706.32 2297.52 1.08.72-.96 6.24c-4.32 2-8.32 3.16-12 3.48-4.56-.88-7.84-2.56-9.84-5.04s-3-6.08-3-10.8l.36-8.52-.12-24.84h-7.56l-.48-.72.6-5.64h7.32v-8.88l8.28-3.6.96.84-.24 11.64h16.32l.48.72-.6 5.64h-16.2l-.6 32.52c-.08 3.2.48 5.44 1.68 6.72s3.16 1.92 5.88 1.92 5.52-.8 8.64-2.4z" fill="#afa7a0"/><path d="m4721.32 2279.4v.24c0 6.72 1.52 11.88 4.56 15.48s7.36 5.4 12.96 5.4c2.8 0 5.6-.46 8.4-1.38s5.36-2.22 7.68-3.9l.96.72-1.44 8.16c-5.6 2.72-11.2 4.08-16.8 4.08-7.84 0-14-2.5-18.48-7.5s-6.72-11.86-6.72-20.58 2.24-15.8 6.72-21 10.52-7.8 18.12-7.8c6.4 0 11.36 1.82 14.88 5.46s5.28 8.7 5.28 15.18c0 2.16-.16 4.2-.48 6.12l-1.2 1.2zm5.94-17.46c-2.68 2.6-4.46 6.26-5.34 10.98l26.52-.48.24-1.68c0-4.08-.98-7.22-2.94-9.42s-4.78-3.3-8.46-3.3c-4 0-7.34 1.3-10.02 3.9z" fill="#afa7a0"/><path d="m4778.08 2257.08 11.4 16.68 10.44-16.56 2.76-4.92h8.88l-17.16 26.88 18.36 27.6-10.08.96-2.64-5.64-11.76-17.4-11.52 17.88-2.4 4.68h-8.88l17.64-27.96-17.52-26.64 10.2-.72z" fill="#afa7a0"/><path d="m5687.2 2285.76c0 7.28-2.64 12.76-7.92 16.44s-13.16 5.52-23.64 5.52c-7.04 0-12.68-.16-16.92-.48h-.12l.6-23.16-.6-53.76 21.36-.12c7.2 0 12.74 1.6 16.62 4.8s5.82 7.84 5.82 13.92c0 4.32-1 8.04-3 11.16s-4.84 5.48-8.52 7.08c10.88 2.16 16.32 8.36 16.32 18.6zm-15 10.2c3.52-2.48 5.28-6.04 5.28-10.68 0-7.84-4.92-12.32-14.76-13.44l-14.76.12-.12 11.28.36 16.08c3.12.24 6.08.36 8.88.36 6.56 0 11.6-1.24 15.12-3.72zm-3.06-55.02c-2.28-1.88-5.98-2.82-11.1-2.82h-9.72l-.24 25.8 13.2.36c7.52-1.76 11.28-6.52 11.28-14.28 0-4.16-1.14-7.18-3.42-9.06z" fill="#afa7a0"/><path d="m5710.36 2229.12c.96.96 1.44 2.28 1.44 3.96s-.5 3.16-1.5 4.2-2.38 1.56-4.14 1.56-2.98-.48-3.9-1.44-1.38-2.32-1.38-4.08.5-3.04 1.5-4.08 2.38-1.56 4.14-1.56c1.6 0 2.88.48 3.84 1.44zm-8.28 54.84-.36-31.08 9.24-.84-.24 31.08.24 24.12h-9.36z" fill="#afa7a0"/><path d="m5768.38 2258.58c4.12 4.84 6.18 11.66 6.18 20.46 0 9.28-2.16 16.46-6.48 21.54s-10.48 7.62-18.48 7.62c-7.52 0-13.34-2.42-17.46-7.26s-6.18-11.66-6.18-20.46c0-9.28 2.18-16.46 6.54-21.54s10.54-7.62 18.54-7.62c7.44 0 13.22 2.42 17.34 7.26zm-29.46 4.62c-2.64 3.44-3.96 8.48-3.96 15.12 0 7.68 1.3 13.44 3.9 17.28s6.38 5.76 11.34 5.76 8.88-1.68 11.52-5.04 3.96-8.4 3.96-15.12c0-7.6-1.3-13.36-3.9-17.28s-6.38-5.88-11.34-5.88-8.88 1.72-11.52 5.16z" fill="#afa7a0"/><path d="m5798.8 2283.12.6 24.12h-9.48l.72-23.4-.6-60 9.48-.84z" fill="#afa7a0"/><path d="m5868.28 2300.16-.96 5.4c-2.32 1.36-4.6 2.16-6.84 2.4-2.32-.32-4.18-1.14-5.58-2.46s-2.38-3.3-2.94-5.94h-.72c-4.8 4.32-9.76 7.12-14.88 8.4-5.92 0-10.42-1.4-13.5-4.2s-4.58-6.8-4.5-12l.12-15.24-.36-23.64 9.6-.84-.72 37.44c0 3.28.78 5.84 2.34 7.68s3.86 2.76 6.9 2.76c4.96 0 9.92-2.4 14.88-7.2v-39.84l9.12-.84-.6 43.44c0 1.68.26 2.86.78 3.54s1.42 1.02 2.7 1.02 2.68-.24 4.2-.72z" fill="#afa7a0"/><path d="m5947.84 2269.92c.08-3.28-.68-5.84-2.28-7.68s-3.96-2.76-7.08-2.76c-5.12 0-10.44 2.76-15.96 8.28l-.24 15.6.48 23.88h-9.72l.72-37.32c.08-3.28-.68-5.84-2.28-7.68s-3.96-2.76-7.08-2.76c-5.04 0-10.48 2.84-16.32 8.52v15.12l.48 24.12h-9.48l.6-23.28-.48-31.08 9-.84v8.04h.72c4.96-4.4 10.04-7.24 15.24-8.52 4.48 0 8.16.78 11.04 2.34s4.92 3.82 6.12 6.78h.72c5.04-4.56 10.44-7.6 16.2-9.12 6.08 0 10.68 1.4 13.8 4.2s4.64 6.8 4.56 12l-.24 15.6.48 23.88h-9.6z" fill="#afa7a0"/><path d="m5983.95 2229.12c.96.96 1.44 2.28 1.44 3.96s-.5 3.16-1.5 4.2-2.38 1.56-4.14 1.56-2.98-.48-3.9-1.44-1.38-2.32-1.38-4.08.5-3.04 1.5-4.08 2.38-1.56 4.14-1.56c1.6 0 2.88.48 3.84 1.44zm-8.28 54.84-.36-31.08 9.24-.84-.24 31.08.24 24.12h-9.36z" fill="#afa7a0"/><path d="m6038.79 2269.92c.08-3.28-.68-5.84-2.28-7.68s-3.96-2.76-7.08-2.76c-5.04 0-10.48 2.84-16.32 8.52v15.12l.48 24.12h-9.48l.6-23.28-.48-31.08 9-.84v8.04h.72c4.96-4.4 10.04-7.24 15.24-8.52 6 0 10.58 1.4 13.74 4.2s4.7 6.8 4.62 12l-.24 15.6.48 23.88h-9.6z" fill="#afa7a0"/><path d="m6070.35 2279.4v.24c0 6.72 1.52 11.88 4.56 15.48s7.36 5.4 12.96 5.4c2.8 0 5.6-.46 8.4-1.38s5.36-2.22 7.68-3.9l.96.72-1.44 8.16c-5.6 2.72-11.2 4.08-16.8 4.08-7.84 0-14-2.5-18.48-7.5s-6.72-11.86-6.72-20.58 2.24-15.8 6.72-21 10.52-7.8 18.12-7.8c6.4 0 11.36 1.82 14.88 5.46s5.28 8.7 5.28 15.18c0 2.16-.16 4.2-.48 6.12l-1.2 1.2zm5.94-17.46c-2.68 2.6-4.46 6.26-5.34 10.98l26.52-.48.24-1.68c0-4.08-.98-7.22-2.94-9.42s-4.78-3.3-8.46-3.3c-4 0-7.34 1.3-10.02 3.9z" fill="#afa7a0"/><path d="m6149.55 2254.08-1.32 7.8-1.44.36c-4-2.64-7.84-3.96-11.52-3.96-2.72 0-4.92.76-6.6 2.28s-2.52 3.36-2.52 5.52.86 3.9 2.58 5.22 4.38 2.82 7.98 4.5c3.12 1.44 5.62 2.74 7.5 3.9s3.5 2.7 4.86 4.62 2.04 4.28 2.04 7.08c0 2.96-.76 5.72-2.28 8.28s-3.76 4.62-6.72 6.18-6.48 2.34-10.56 2.34c-5.6 0-10.92-1.32-15.96-3.96l1.2-8.16 1.08-.72c2.24 1.92 4.66 3.4 7.26 4.44s5.06 1.56 7.38 1.56c2.96 0 5.36-.82 7.2-2.46s2.76-3.58 2.76-5.82-.86-3.9-2.58-5.22-4.38-2.82-7.98-4.5c-3.12-1.44-5.64-2.74-7.56-3.9s-3.56-2.74-4.92-4.74-2.04-4.48-2.04-7.44c0-4.64 1.7-8.44 5.1-11.4s8.02-4.44 13.86-4.44c4.56 0 8.96.88 13.2 2.64z" fill="#afa7a0"/><path d="m6193.29 2252.22c2.68.6 5.02 1.38 7.02 2.34l-1.68 8.28-1.08.36c-4.16-2.72-8.28-4.08-12.36-4.08-4.72 0-8.4 1.8-11.04 5.4s-3.96 8.64-3.96 15.12 1.38 11.58 4.14 15.3 6.58 5.58 11.46 5.58c2.16 0 4.42-.36 6.78-1.08s4.58-1.72 6.66-3l1.08.6-1.08 8.04c-4.88 2.08-9.76 3.12-14.64 3.12-7.28 0-13-2.5-17.16-7.5s-6.24-11.86-6.24-20.58 2.18-15.9 6.54-21.06 10.3-7.74 17.82-7.74c2.48 0 5.06.3 7.74.9z" fill="#afa7a0"/><path d="m6216.27 2279.4v.24c0 6.72 1.52 11.88 4.56 15.48s7.36 5.4 12.96 5.4c2.8 0 5.6-.46 8.4-1.38s5.36-2.22 7.68-3.9l.96.72-1.44 8.16c-5.6 2.72-11.2 4.08-16.8 4.08-7.84 0-14-2.5-18.48-7.5s-6.72-11.86-6.72-20.58 2.24-15.8 6.72-21 10.52-7.8 18.12-7.8c6.4 0 11.36 1.82 14.88 5.46s5.28 8.7 5.28 15.18c0 2.16-.16 4.2-.48 6.12l-1.2 1.2zm5.94-17.46c-2.68 2.6-4.46 6.26-5.34 10.98l26.52-.48.24-1.68c0-4.08-.98-7.22-2.94-9.42s-4.78-3.3-8.46-3.3c-4 0-7.34 1.3-10.02 3.9z" fill="#afa7a0"/><path d="m6301.95 2269.92c.08-3.28-.68-5.84-2.28-7.68s-3.96-2.76-7.08-2.76c-5.04 0-10.48 2.84-16.32 8.52v15.12l.48 24.12h-9.48l.6-23.28-.48-31.08 9-.84v8.04h.72c4.96-4.4 10.04-7.24 15.24-8.52 6 0 10.58 1.4 13.74 4.2s4.7 6.8 4.62 12l-.24 15.6.48 23.88h-9.6z" fill="#afa7a0"/><path d="m6356.73 2252.22c2.68.6 5.02 1.38 7.02 2.34l-1.68 8.28-1.08.36c-4.16-2.72-8.28-4.08-12.36-4.08-4.72 0-8.4 1.8-11.04 5.4s-3.96 8.64-3.96 15.12 1.38 11.58 4.14 15.3 6.58 5.58 11.46 5.58c2.16 0 4.42-.36 6.78-1.08s4.58-1.72 6.66-3l1.08.6-1.08 8.04c-4.88 2.08-9.76 3.12-14.64 3.12-7.28 0-13-2.5-17.16-7.5s-6.24-11.86-6.24-20.58 2.18-15.9 6.54-21.06 10.3-7.74 17.82-7.74c2.48 0 5.06.3 7.74.9z" fill="#afa7a0"/><path d="m6379.71 2279.4v.24c0 6.72 1.52 11.88 4.56 15.48s7.36 5.4 12.96 5.4c2.8 0 5.6-.46 8.4-1.38s5.36-2.22 7.68-3.9l.96.72-1.44 8.16c-5.6 2.72-11.2 4.08-16.8 4.08-7.84 0-14-2.5-18.48-7.5s-6.72-11.86-6.72-20.58 2.24-15.8 6.72-21 10.52-7.8 18.12-7.8c6.4 0 11.36 1.82 14.88 5.46s5.28 8.7 5.28 15.18c0 2.16-.16 4.2-.48 6.12l-1.2 1.2zm5.94-17.46c-2.68 2.6-4.46 6.26-5.34 10.98l26.52-.48.24-1.68c0-4.08-.98-7.22-2.94-9.42s-4.78-3.3-8.46-3.3c-4 0-7.34 1.3-10.02 3.9z" fill="#afa7a0"/></svg>